<svg width="112" height="25" viewBox="0 0 112 25" fill="none" xmlns="http://www.w3.org/2000/svg">
<path d="M7 4.5L10.854 20.3473C10.8758 20.4369 10.9561 20.5 11.0483 20.5H14.6736C14.7414 20.5 14.8045 20.4657 14.8414 20.4089L18.2209 15.2036C18.3014 15.0795 18.4841 15.0828 18.5602 15.2097L21.5659 20.2251C21.6419 20.352 21.8246 20.3552 21.9052 20.2312L25.1761 15.1932C25.2549 15.0717 25.4327 15.0717 25.5116 15.1932L28.8979 20.4089C28.9348 20.4657 28.9979 20.5 29.0656 20.5H39.9562C40.0292 20.5 40.0963 20.4603 40.1315 20.3963L42.9481 15.2692C43.0257 15.1278 43.2302 15.1318 43.3023 15.2762L45.8559 20.3894C45.8898 20.4572 45.9591 20.5 46.0348 20.5H64.4243C64.4921 20.5 64.5552 20.4657 64.5921 20.4089L68.087 15.0259C68.1239 14.9691 68.187 14.9348 68.2547 14.9348H71.9189C71.9919 14.9348 72.0591 14.9745 72.0942 15.0385L75.0376 20.3963C75.0727 20.4603 75.1399 20.5 75.2129 20.5H104" stroke="#9B8AFB" stroke-width="1.5" stroke-linecap="round"/>
</svg>
