<svg width="112" height="25" viewBox="0 0 112 25" fill="none" xmlns="http://www.w3.org/2000/svg">
<path d="M7 15.3919C7 15.3919 12.5 19.5 12.7311 19.5C12.9345 19.5 15.0005 18.1595 15.4921 17.8387C15.5565 17.7966 15.6386 17.7956 15.7045 17.8354L18.3451 19.4293C18.4157 19.4719 18.5052 19.4668 18.5705 19.4165L21.9773 16.7909C22.0537 16.732 22.1613 16.736 22.2331 16.8006L25.1783 19.4487C25.215 19.4817 25.2626 19.5 25.312 19.5H28.3163C28.346 19.5 28.3752 19.4934 28.402 19.4807L31.9157 17.8143C31.9739 17.7866 32.0418 17.7888 32.0982 17.82L35.0893 19.475C35.1189 19.4914 35.1522 19.5 35.1861 19.5H41.8498C41.8875 19.5 41.9245 19.4893 41.9565 19.4692L48.2815 15.4793C48.3621 15.4285 48.4674 15.4416 48.5331 15.5107L52.2686 19.4378C52.3064 19.4775 52.3587 19.5 52.4135 19.5H58.2142C58.28 19.5 58.3416 19.4676 58.3789 19.4134L62.4553 13.4925C62.4763 13.4621 62.5053 13.438 62.5391 13.4231L66.1941 11.8051C66.3018 11.7574 66.4273 11.8128 66.4647 11.9246L68.9543 19.3635C68.9816 19.445 69.058 19.5 69.144 19.5H71.7757C71.8328 19.5 71.8873 19.4755 71.9252 19.4328L75.3727 15.5495C75.4488 15.4638 75.5811 15.4594 75.6627 15.5398L79.6223 19.4424C79.6597 19.4793 79.7101 19.5 79.7627 19.5H82.3815C82.4772 19.5 82.5595 19.4322 82.5778 19.3384L85.4949 4.40767C85.5362 4.1965 85.8361 4.19049 85.8858 4.39984L89.0223 17.6165C89.0437 17.7066 89.1242 17.7703 89.2169 17.7703H92.6037C92.6679 17.7703 92.7282 17.7395 92.7658 17.6874L95.6659 13.6757C95.7468 13.5637 95.9143 13.5656 95.9927 13.6794L100 19.5" stroke="#9B8AFB" stroke-width="1.5" stroke-linecap="round"/>
</svg>
