<svg width="112" height="25" viewBox="0 0 112 25" fill="none" xmlns="http://www.w3.org/2000/svg">
<path d="M8 20.5H22.6393C22.7183 20.5 22.7899 20.4535 22.822 20.3812L26.1488 12.8961C26.2181 12.7401 26.4382 12.737 26.5119 12.891L30.0994 20.3863C30.1327 20.4558 30.2028 20.5 30.2798 20.5H37.1308C37.212 20.5 37.2851 20.451 37.3159 20.3759L40.4961 12.6241C40.5269 12.549 40.6 12.5 40.6811 12.5H43.9726C44.0516 12.5 44.1233 12.5465 44.1554 12.6188L47.4821 20.1039C47.5514 20.2599 47.7716 20.263 47.8452 20.109L51.3001 12.891C51.3737 12.737 51.5939 12.7401 51.6632 12.8961L54.9899 20.3812C55.022 20.4535 55.0937 20.5 55.1727 20.5H65.3099C65.3869 20.5 65.4571 20.4558 65.4903 20.3863L69.0778 12.891C69.1515 12.737 69.3717 12.7401 69.441 12.8961L72.7677 20.3812C72.7998 20.4535 72.8715 20.5 72.9505 20.5H104" stroke="#9B8AFB" stroke-width="1.5" stroke-linecap="round"/>
</svg>
