<svg width="112" height="25" viewBox="0 0 112 25" fill="none" xmlns="http://www.w3.org/2000/svg">
<path d="M9 14.0745L13.1803 18.4384C13.218 18.4777 13.2702 18.5 13.3247 18.5H23.2051C23.2695 18.5 23.33 18.469 23.3675 18.4167L26.3299 14.2933C26.4082 14.1844 26.5695 14.1819 26.6511 14.2884L29.6066 18.1451C29.6445 18.1944 29.7032 18.2234 29.7654 18.2234H39.9105C39.9675 18.2234 40.0217 18.1991 40.0596 18.1567L43.5547 14.2475C43.6362 14.1564 43.7796 14.159 43.8577 14.2531L47.0939 18.1512C47.1319 18.1969 47.1883 18.2234 47.2477 18.2234H50.2439C50.3008 18.2234 50.355 18.1991 50.393 18.1567L53.8818 14.2545C53.9654 14.161 54.1133 14.1666 54.1896 14.2661L57.0705 18.0254C57.1483 18.127 57.3003 18.1303 57.3825 18.0322L60.7662 13.9952C60.85 13.8952 61.0057 13.901 61.0819 14.007L63.9551 18.0062C64.033 18.1147 64.1933 18.1178 64.2753 18.0124L67.3977 14.0007C67.4778 13.8978 67.6333 13.8978 67.7134 14.0007L70.9399 18.1462C70.9778 18.1949 71.0361 18.2234 71.0978 18.2234H80.9789C81.0358 18.2234 81.0901 18.1991 81.128 18.1567L84.7203 14.1388C84.757 14.0977 84.809 14.0736 84.864 14.0722L94.9775 13.8014C95.0584 13.7993 95.13 13.7486 95.1589 13.6731L98.0781 6.05464C98.1466 5.87574 98.4032 5.8863 98.4568 6.07022L102 18.2234" stroke="#9B8AFB" stroke-width="1.5" stroke-linecap="round"/>
</svg>
