<svg width="577" height="185" viewBox="0 0 577 185" fill="none" xmlns="http://www.w3.org/2000/svg">
<g clip-path="url(#clip0_2673_96444)">
<path d="M-1008 -28.6034L-985.062 -11.541C-985.033 -11.5194 -985 -11.5033 -984.965 -11.4933L-965.203 -5.83962C-965.136 -5.82051 -965.065 -5.82518 -965.001 -5.85284L-942.17 -15.7594C-942.135 -15.7744 -942.104 -15.7959 -942.077 -15.8226L-922.262 -35.6635C-922.221 -35.7045 -922.169 -35.7327 -922.113 -35.7449L-902.389 -39.977C-902.319 -39.9919 -902.247 -39.9818 -902.185 -39.9486L-880.893 -28.6359C-880.852 -28.6145 -880.817 -28.5842 -880.791 -28.5472L-839.596 28.1967C-839.518 28.3051 -839.376 28.3482 -839.251 28.3022L-818.205 20.6148C-818.089 20.5725 -817.959 20.6054 -817.878 20.6977L-775.407 68.6483C-775.266 68.8073 -775.009 68.7736 -774.914 68.5837L-733.888 -13.3588C-733.811 -13.5139 -733.618 -13.571 -733.468 -13.4834L-692.464 10.5213C-692.407 10.5546 -692.341 10.5682 -692.276 10.5601L-669.394 7.72346L-651.121 3.47596C-651.049 3.45907 -650.972 3.46985 -650.907 3.50618L-628.093 16.234C-628.049 16.2582 -628.012 16.293 -627.986 16.335L-608.21 47.4516C-608.148 47.5494 -608.035 47.6026 -607.92 47.5884L-585.126 44.7626L-566.908 40.5279C-566.804 40.5037 -566.695 40.5367 -566.622 40.6145L-545.58 62.9738C-545.439 63.1244 -545.19 63.0898 -545.095 62.9061L-525.402 24.8752C-525.382 24.8378 -525.355 24.8049 -525.322 24.7786L-504.067 7.83913C-503.978 7.76825 -503.857 7.75376 -503.754 7.8017L-482.559 17.6552C-482.502 17.6814 -482.455 17.7245 -482.424 17.7786L-462.684 52.3696C-462.61 52.5002 -462.45 52.5554 -462.31 52.4988L-438.072 42.639C-438.05 42.6302 -438.03 42.6188 -438.011 42.6051L-418.121 28.3799L-399.775 12.0324C-399.749 12.0091 -399.719 11.9906 -399.687 11.9776L-378.492 3.53205C-378.369 3.48315 -378.229 3.52027 -378.147 3.62348L-358.612 28.0737C-358.489 28.2281 -358.253 28.2232 -358.136 28.0639L-335.494 -2.81214C-335.427 -2.90338 -335.315 -2.94921 -335.203 -2.93068L-314.03 0.584775C-313.968 0.595038 -313.911 0.624397 -313.867 0.668731L-294.148 20.4136C-294.068 20.4939 -293.949 20.5221 -293.841 20.4863L-272.613 13.4371C-272.583 13.4269 -272.551 13.4218 -272.519 13.4218H-252.711C-252.67 13.4218 -252.63 13.4301 -252.592 13.4464L-231.382 22.6023C-231.271 22.6503 -231.142 22.6268 -231.055 22.5427L-211.394 3.55881C-211.323 3.49048 -211.223 3.46118 -211.127 3.48041L-189.939 7.70193C-189.869 7.71583 -189.807 7.75407 -189.762 7.80982L-168.407 34.7574C-168.39 34.7794 -168.369 34.7988 -168.346 34.8151L-148.651 48.9017C-148.54 48.981 -148.39 48.9756 -148.285 48.8885L-127.013 31.229L-105.831 13.6447C-105.69 13.5274 -105.477 13.5635 -105.382 13.7208L-84.1443 48.9832C-84.1232 49.0182 -84.0951 49.0486 -84.0619 49.0724L-64.2771 63.2229C-64.2234 63.2613 -64.1586 63.2809 -64.0926 63.2787L-42.9322 62.5761C-42.8172 62.5723 -42.7146 62.5031 -42.6679 62.3979L-22.967 18.0127C-22.8928 17.8455 -22.6875 17.7831 -22.5327 17.8807L-1.40405 31.2114C-1.38547 31.2231 -1.36566 31.2328 -1.34498 31.2402L18.4255 38.3103C18.5001 38.337 18.561 38.392 18.5952 38.4634L39.9772 83.1952C39.987 83.2158 39.9992 83.2353 40.0135 83.2531L59.5579 107.716C59.7079 107.904 60.0068 107.848 60.0786 107.618L82.8622 34.8864C82.8817 34.8242 82.921 34.77 82.974 34.732L102.564 20.721C102.7 20.6239 102.888 20.6562 102.984 20.7929L124.056 50.8809C124.163 51.0335 124.381 51.0528 124.513 50.9214L145.506 30.0082C145.62 29.8945 145.804 29.8913 145.922 30.0011L165.597 48.2946C165.618 48.3141 165.641 48.3305 165.667 48.3433L206.909 68.9369C206.966 68.9652 207.03 68.9749 207.093 68.9645L228.288 65.4453C228.387 65.4289 228.471 65.364 228.513 65.2724L249.745 18.0331C249.823 17.8592 250.042 17.8014 250.196 17.9139L271.231 33.2815C271.304 33.3349 271.398 33.3524 271.485 33.3292L292.77 27.6749C292.788 27.67 292.807 27.6669 292.825 27.6656L312.642 26.2482C312.69 26.2448 312.738 26.253 312.782 26.272L333.964 35.4161C334.084 35.4677 334.223 35.4362 334.309 35.3381L353.948 12.8645C354.029 12.7711 354.16 12.7376 354.277 12.7801L375.533 20.5447L395.381 25.5131C395.427 25.5247 395.475 25.5251 395.522 25.5143L416.796 20.5691C416.864 20.5533 416.936 20.5617 416.998 20.5928L438.255 31.1809C438.317 31.212 438.389 31.2204 438.457 31.2046L459.802 26.243L478.139 20.5596C478.171 20.5497 478.205 20.5453 478.238 20.5464L499.553 21.2542C499.608 21.256 499.662 21.2733 499.709 21.3041L520.91 35.3845C521.016 35.4553 521.156 35.4507 521.258 35.373L542.333 19.2766C542.451 19.1866 542.617 19.1962 542.723 19.2992L562.312 38.2131C562.399 38.2972 562.528 38.3207 562.639 38.2727L583.82 29.1292C583.876 29.1051 583.938 29.0985 583.998 29.1104L605.216 33.338C605.305 33.3557 605.397 33.3324 605.466 33.2746L626.755 15.6008C626.789 15.573 626.828 15.5529 626.87 15.5417L648.033 9.91961C648.165 9.88467 648.303 9.94265 648.371 10.0609L668.071 44.5811C668.133 44.6901 668.257 44.7489 668.38 44.7283L689.584 41.2078C689.611 41.2034 689.638 41.2026 689.665 41.2055L709.427 43.3256C709.501 43.3336 709.576 43.3136 709.636 43.2696L730.845 27.7753C730.936 27.7091 731.056 27.699 731.156 27.749L752.313 38.2876C752.395 38.3283 752.491 38.3295 752.574 38.2911L772.189 29.1722C772.294 29.1233 772.418 29.1394 772.507 29.2134L793.714 46.8193C793.776 46.8706 793.856 46.895 793.936 46.887L815.136 44.775C815.216 44.767 815.296 44.7914 815.357 44.8427L836.604 62.4808C836.672 62.5373 836.761 62.5609 836.848 62.5453L856.58 59.0172C856.612 59.0114 856.646 59.011 856.679 59.016L879.4 62.537C879.526 62.5567 879.651 62.4937 879.711 62.3804L897.932 27.7917C897.973 27.713 898.047 27.6568 898.134 27.6382L917.725 23.4346C917.841 23.4098 917.96 23.4552 918.03 23.5505L940.68 54.4375C940.792 54.5908 941.017 54.6022 941.144 54.461L960.552 32.9455C960.685 32.7986 960.921 32.818 961.027 32.9846L982.036 65.7727C982.148 65.9474 982.399 65.9584 982.526 65.7942L1003.67 38.4136C1003.7 38.3732 1003.74 38.3414 1003.79 38.3212L1023.51 29.8573C1023.59 29.8237 1023.68 29.825 1023.76 29.861L1045.03 39.7508C1045.06 39.7678 1045.1 39.7772 1045.14 39.7786L1066.5 40.4878C1066.52 40.4885 1066.54 40.4914 1066.56 40.4966L1086.37 45.4535C1086.42 45.4674 1086.47 45.4971 1086.51 45.5389L1107.87 68.2297C1107.89 68.2551 1107.91 68.2846 1107.92 68.3167L1129.22 117.828C1129.29 117.99 1129.49 118.057 1129.64 117.974L1149.16 107.505C1149.23 107.466 1149.28 107.399 1149.3 107.319L1170.54 28.3399C1170.61 28.0858 1170.95 28.0365 1171.08 28.2607L1191.94 62.1955C1192.05 62.3755 1192.31 62.3878 1192.44 62.2193L1211.91 36.4506C1212.01 36.3199 1212.19 36.2926 1212.33 36.3892L1233.35 51.7448C1233.46 51.8272 1233.61 51.8209 1233.72 51.7296L1254.83 33.5038C1254.92 33.4211 1255.06 33.4074 1255.17 33.4697L1276.38 45.4423C1276.42 45.4637 1276.45 45.4932 1276.48 45.5287L1294.77 71.0429C1294.81 71.0914 1294.85 71.1284 1294.91 71.1492L1317.75 79.6432C1317.79 79.6574 1317.83 79.6637 1317.87 79.6616L1359.09 77.5323C1359.15 77.5294 1359.2 77.5116 1359.24 77.4808L1378.88 64.1382C1379 64.0554 1379.17 64.0734 1379.27 64.1808L1400.29 86.5192C1400.42 86.6577 1400.65 86.6415 1400.75 86.4857L1421.77 56.4799C1421.88 56.3182 1422.12 56.3081 1422.24 56.4595L1443.22 81.5368C1443.34 81.6767 1443.55 81.6807 1443.67 81.5453L1463.33 59.7503C1463.35 59.7306 1463.37 59.7134 1463.39 59.699L1482.96 47.1059C1483.12 47.0007 1483.34 47.0763 1483.4 47.2598L1506.24 113.077C1506.25 113.12 1506.28 113.159 1506.31 113.191L1527.66 134.458C1527.69 134.493 1527.74 134.519 1527.78 134.533L1548.99 140.872C1549.1 140.903 1549.21 140.875 1549.29 140.8L1590.53 101.034L1608.71 77.7895C1608.82 77.6496 1609.03 77.6349 1609.16 77.758L1631.77 99.4894C1631.85 99.5634 1631.96 99.5909 1632.06 99.5615L1651.72 93.9388C1651.78 93.9205 1651.85 93.9239 1651.91 93.9485L1673.11 102.397C1673.21 102.435 1673.32 102.421 1673.4 102.36L1694.57 86.8956C1694.66 86.8293 1694.78 86.8193 1694.88 86.8696L1714.39 96.639C1714.53 96.7076 1714.7 96.6617 1714.78 96.5325L1736.03 63.3633C1736.07 63.3105 1736.12 63.2696 1736.17 63.2464L1757.28 54.8341C1757.43 54.7775 1757.59 54.8367 1757.66 54.9717L1798.6 131.799C1798.72 132.025 1799.05 132.006 1799.14 131.767L1820.21 77.8988C1820.28 77.713 1820.51 77.6486 1820.67 77.7696L1841.61 93.7631C1841.72 93.8491 1841.88 93.8446 1841.99 93.7524L1881.32 59.9985C1881.47 59.8632 1881.72 59.9252 1881.79 60.1193L1902.97 115.683C1903.03 115.848 1903.23 115.924 1903.38 115.845L1926.01 104.623C1926.05 104.605 1926.08 104.578 1926.11 104.546L1944.19 82.8288C1944.32 82.6729 1944.57 82.6881 1944.68 82.8589L1965.84 115.884C1965.88 115.953 1965.95 116.001 1966.03 116.017L1987.33 120.26C1987.35 120.264 1987.37 120.269 1987.38 120.276L2008.81 128.813L2028.46 135.138C2028.61 135.186 2028.77 135.11 2028.83 134.964L2050.08 82.048C2050.13 81.9073 2050.29 81.8309 2050.43 81.8698L2071.49 87.464C2071.58 87.4868 2071.65 87.5466 2071.68 87.6272L2091.31 129.743C2091.41 129.958 2091.71 129.977 2091.84 129.778L2112.95 96.8332C2112.98 96.7852 2113.02 96.747 2113.07 96.723L2132.69 87.6011C2132.82 87.542 2132.97 87.5788 2133.06 87.6897L2154.32 115.221C2154.35 115.259 2154.38 115.29 2154.43 115.31L2175.52 125.117C2175.68 125.19 2175.87 125.116 2175.93 124.955L2195.57 75.0723C2195.65 74.88 2195.89 74.8201 2196.05 74.9552L2217.12 93.1499C2217.16 93.1817 2217.2 93.2041 2217.25 93.2151L2238.52 98.1598C2238.59 98.1757 2238.66 98.1672 2238.73 98.1359L2258.46 88.2552C2258.52 88.2273 2258.58 88.2174 2258.64 88.2269L2281.41 91.7558C2281.49 91.7673 2281.56 91.8063 2281.6 91.865L2301.34 116.571C2301.41 116.654 2301.51 116.695 2301.62 116.682L2322.78 113.87C2322.86 113.86 2322.93 113.823 2322.97 113.767L2342.72 90.4684C2342.78 90.3937 2342.87 90.3546 2342.97 90.3636L2365.8 92.486" stroke="#7A5AF8" stroke-width="2" stroke-linecap="round"/>
<path d="M-1008 51.1732L-985.066 63.2677C-985.048 63.2773 -985.028 63.284 -985.008 63.2876L-965.186 66.8352C-965.155 66.8407 -965.123 66.8389 -965.093 66.83L-943.904 60.4917C-943.797 60.4595 -943.684 60.5223 -943.654 60.6307L-931.508 105.137C-931.482 105.234 -931.387 105.297 -931.287 105.282L-911.612 102.465C-911.579 102.461 -911.546 102.464 -911.515 102.475L-890.272 110.242C-890.188 110.272 -890.095 110.244 -890.042 110.173L-859.647 69.157C-859.577 69.0623 -859.44 69.0485 -859.353 69.1272L-838.168 88.1385C-838.117 88.1844 -838.045 88.2008 -837.979 88.1819L-818.28 82.5409C-818.22 82.5239 -818.156 82.5353 -818.107 82.5718L-796.942 98.0476C-796.843 98.1197 -796.704 98.0873 -796.647 97.9793L-778.512 63.5215C-778.449 63.4025 -778.289 63.378 -778.194 63.4727L-755.575 85.9262C-755.493 86.0072 -755.36 86.0029 -755.284 85.9168L-734.084 61.9593C-734.029 61.8979 -733.943 61.8759 -733.866 61.9038L-692.708 76.7995C-692.678 76.8101 -692.647 76.8137 -692.616 76.81L-651.381 71.8355C-651.349 71.8316 -651.317 71.8355 -651.287 71.8466L-628.414 80.3611C-628.386 80.3716 -628.36 80.3885 -628.339 80.4104L-610.066 99.5421C-610.025 99.5845 -609.968 99.607 -609.91 99.6036L-585.51 98.1844L-567.222 95.3479C-567.17 95.3398 -567.117 95.3528 -567.074 95.3841L-545.859 110.897C-545.775 110.958 -545.657 110.945 -545.589 110.865L-524.43 86.2505C-524.35 86.1582 -524.208 86.1576 -524.127 86.2494L-504.419 108.824C-504.393 108.853 -504.359 108.874 -504.322 108.885L-481.502 115.256C-481.448 115.271 -481.391 115.263 -481.344 115.234L-461.541 103.184C-461.526 103.175 -461.51 103.168 -461.493 103.163L-437.041 96.0518C-437.031 96.0489 -437.021 96.0454 -437.012 96.0411L-420.243 88.2384C-420.207 88.2214 -420.177 88.1938 -420.156 88.1592L-400.404 54.9299C-400.342 54.8263 -400.204 54.8003 -400.109 54.8745L-357.444 88.1987C-357.432 88.2078 -357.422 88.218 -357.412 88.2294L-337.722 112.192C-337.63 112.304 -337.453 112.284 -337.388 112.155L-316.195 69.8901C-316.142 69.7844 -316.009 69.7475 -315.909 69.8106L-294.686 83.2128C-294.672 83.2218 -294.657 83.2289 -294.641 83.234L-274.795 89.6273C-274.775 89.6337 -274.755 89.6369 -274.734 89.6369H-253.357C-253.342 89.6369 -253.327 89.6352 -253.312 89.6317L-231.934 84.658C-231.914 84.6533 -231.895 84.6454 -231.877 84.6348L-210.536 71.8673C-210.495 71.843 -210.447 71.8339 -210.401 71.8417L-189.137 75.3754C-189.077 75.3853 -189.016 75.3676 -188.971 75.3271L-169.191 57.6268C-169.159 57.5989 -169.12 57.5814 -169.079 57.577L-149.243 55.447H-127.899C-127.843 55.447 -127.791 55.4699 -127.753 55.5103L-86.5079 99.5807C-86.4904 99.5994 -86.4695 99.6145 -86.4463 99.6253L-65.0909 109.562C-65.0645 109.575 -65.0357 109.581 -65.0065 109.581H-42.1208C-42.1 109.581 -42.0793 109.578 -42.0594 109.571L-22.2097 103.177C-22.1963 103.173 -22.1823 103.17 -22.1683 103.168L-0.783225 101.036C-0.766996 101.034 -0.751025 101.031 -0.735669 101.025L18.999 93.9615C19.0831 93.9314 19.177 93.9607 19.229 94.0333L38.9187 121.519C38.9852 121.612 39.116 121.63 39.2056 121.559L65.0527 101.043C65.0602 101.037 65.0681 101.031 65.0764 101.026L83.42 90.3568C83.4287 90.3517 83.4378 90.3473 83.4473 90.3436L103.283 82.5336C103.316 82.5207 103.345 82.4996 103.366 82.4722L123.07 57.7882C123.152 57.6852 123.31 57.6885 123.387 57.7948L146.171 88.8926C146.186 88.9137 146.206 88.9316 146.228 88.9452L166.079 101.024C166.089 101.03 166.099 101.038 166.108 101.046L185.961 118.811C185.983 118.831 186.009 118.845 186.037 118.854L207.384 125.239C207.411 125.247 207.439 125.249 207.467 125.246L228.748 122.417C228.815 122.408 228.873 122.365 228.902 122.304L248.67 80.5567C248.717 80.4573 248.836 80.4146 248.935 80.4609L270.14 90.3276C270.17 90.3418 270.204 90.348 270.237 90.3458L291.617 88.9246L312.921 85.3841C312.998 85.3713 313.075 85.4044 313.119 85.4688L332.839 114.407C332.899 114.496 333.019 114.521 333.111 114.464L354.309 101.077C354.353 101.049 354.407 101.04 354.458 101.051L374.278 105.307L395.676 108.863C395.697 108.867 395.72 108.867 395.741 108.863L417.087 105.316C417.121 105.31 417.153 105.296 417.18 105.274L435.376 90.4572C435.452 90.395 435.562 90.3976 435.636 90.4634L456.864 109.514C456.911 109.556 456.975 109.574 457.037 109.561L478.35 105.311C478.363 105.309 478.376 105.307 478.389 105.307H498.213C498.25 105.307 498.286 105.297 498.318 105.278L522.762 90.3492L539.51 82.556C539.567 82.5296 539.633 82.5313 539.688 82.5608L560.961 93.8738C561.006 93.8975 561.058 93.9034 561.107 93.8905L582.419 88.2237C582.447 88.2162 582.476 88.215 582.505 88.2201L602.279 91.759C602.332 91.7685 602.378 91.7986 602.409 91.8428L625.251 125.146C625.295 125.21 625.372 125.243 625.448 125.231L646.681 121.702C646.728 121.694 646.77 121.67 646.801 121.634L666.601 98.2467C666.634 98.2068 666.683 98.1817 666.735 98.1768L689.577 96.051C689.602 96.0487 689.626 96.0418 689.648 96.0307L729.402 76.1099C729.41 76.1056 729.419 76.1006 729.426 76.0951L750.723 61.2308C750.795 61.1801 750.893 61.1832 750.962 61.2384L772.259 78.2271C772.27 78.2358 772.282 78.2434 772.295 78.2497L834.985 109.555C835.019 109.572 835.057 109.579 835.095 109.575L854.916 107.446C854.93 107.445 854.944 107.445 854.958 107.446L876.328 109.577C876.354 109.58 876.38 109.587 876.403 109.6L896.217 120.238C896.25 120.256 896.287 120.264 896.325 120.262L917.643 118.845C917.679 118.842 917.714 118.83 917.744 118.809L957.37 91.1507C957.445 91.0983 957.547 91.1036 957.616 91.1638L980.329 110.892C980.404 110.957 980.515 110.958 980.591 110.893L1000.32 93.9416C1000.35 93.9212 1000.38 93.9067 1000.41 93.8992L1023.25 88.2297C1023.3 88.2185 1023.34 88.1917 1023.36 88.1541L1043.16 61.2268C1043.2 61.1756 1043.26 61.1453 1043.32 61.1453H1064.53C1064.61 61.1453 1064.67 61.184 1064.71 61.2465L1086.06 98.8562C1086.07 98.8828 1086.1 98.9056 1086.12 98.9229L1105.83 112.327C1105.92 112.386 1106.03 112.369 1106.1 112.289L1125.85 88.2563C1125.87 88.2275 1125.9 88.206 1125.94 88.194L1148.78 80.3974C1148.82 80.3842 1148.86 80.3832 1148.9 80.3944L1168.6 86.0349C1168.69 86.059 1168.78 86.0254 1168.82 85.9521L1189.99 53.5943C1190.07 53.4668 1190.26 53.4757 1190.33 53.6106L1210.04 91.0067C1210.06 91.0424 1210.09 91.0716 1210.13 91.0904L1232.99 103.144C1233.02 103.161 1233.05 103.187 1233.06 103.219L1252.9 136.586C1252.92 136.626 1252.96 136.657 1253 136.672L1272.7 143.721C1272.78 143.751 1272.87 143.723 1272.92 143.652L1315.64 86.1527C1315.68 86.1039 1315.73 86.0742 1315.79 86.0721L1356.93 84.6542C1356.99 84.6521 1357.05 84.6777 1357.09 84.7237L1378.44 109.566C1378.45 109.576 1378.46 109.585 1378.47 109.593L1419.66 141.532C1419.73 141.591 1419.84 141.587 1419.91 141.523L1441.2 122.418C1441.21 122.408 1441.22 122.396 1441.23 122.382L1461.04 93.3116C1461.09 93.2433 1461.17 93.2107 1461.25 93.2294L1482.46 98.1629C1482.52 98.1765 1482.56 98.2155 1482.59 98.2693L1503.96 141.587C1503.97 141.618 1503.99 141.644 1504.02 141.664L1523.77 155.094C1523.84 155.139 1523.92 155.14 1523.99 155.098L1545.24 141.679C1545.29 141.65 1545.34 141.641 1545.39 141.653L1566.66 146.602C1566.71 146.614 1566.77 146.605 1566.81 146.579L1588.12 133.829C1588.15 133.809 1588.18 133.781 1588.2 133.747L1607.9 94.2562C1607.97 94.111 1608.18 94.1079 1608.25 94.2508L1629.43 133.668C1629.47 133.746 1629.56 133.787 1629.65 133.77L1650.89 129.533C1650.92 129.528 1650.95 129.528 1650.97 129.534L1670.77 133.785C1670.81 133.794 1670.85 133.79 1670.89 133.774L1692.19 124.571C1692.24 124.55 1692.29 124.549 1692.34 124.567L1713.64 132.353C1713.67 132.367 1713.71 132.392 1713.73 132.426L1733.38 160.559C1733.47 160.69 1733.67 160.666 1733.73 160.518L1754.91 106.304C1754.97 106.17 1755.14 106.134 1755.24 106.235L1776.27 127.205C1776.36 127.298 1776.52 127.277 1776.59 127.164L1796.21 93.4448C1796.28 93.3249 1796.45 93.3107 1796.54 93.4172L1817.76 118.809C1817.78 118.83 1817.8 118.847 1817.82 118.859L1839.12 129.479C1839.18 129.508 1839.25 129.507 1839.31 129.477L1880.38 107.534C1880.47 107.484 1880.59 107.516 1880.65 107.607L1901.89 142.913C1901.94 142.997 1902.05 143.032 1902.14 142.995L1924.92 133.807C1924.93 133.802 1924.95 133.795 1924.96 133.787L1944.82 120.276C1944.83 120.269 1944.85 120.263 1944.86 120.258L1963.05 112.496C1963.14 112.458 1963.25 112.489 1963.3 112.57L1984.6 145.128C1984.62 145.172 1984.67 145.202 1984.72 145.214L2027.36 155.134C2027.44 155.154 2027.53 155.117 2027.58 155.042L2047.33 121.809C2047.37 121.737 2047.45 121.7 2047.54 121.714L2067.16 125.226C2067.24 125.241 2067.33 125.201 2067.37 125.125L2088.55 86.413C2088.62 86.2709 2088.83 86.2753 2088.9 86.4205L2110.09 129.378C2110.13 129.464 2110.23 129.508 2110.32 129.483L2131.57 123.834C2131.58 123.829 2131.6 123.827 2131.62 123.827H2151.4C2151.46 123.827 2151.51 123.854 2151.55 123.9L2171.2 147.812C2171.29 147.923 2171.47 147.905 2171.53 147.779L2192.7 107.671C2192.76 107.556 2192.92 107.529 2193.01 107.616L2215.74 128.062C2215.77 128.087 2215.8 128.104 2215.84 128.11L2237.17 131.654C2237.2 131.659 2237.23 131.657 2237.26 131.647L2257.07 125.266C2257.1 125.256 2257.13 125.254 2257.16 125.258L2276.92 128.087C2276.98 128.096 2277.04 128.078 2277.08 128.038L2298.39 108.915C2298.43 108.885 2298.47 108.867 2298.51 108.864L2319.79 107.45C2319.85 107.446 2319.9 107.464 2319.94 107.5L2341.26 126.63C2341.29 126.66 2341.33 126.678 2341.38 126.681L2362.74 128.101" stroke="#F63D68" stroke-width="2" stroke-linecap="round"/>
<path d="M-1004.93 140.922L-984.998 144.483L-963.547 145.907C-963.534 145.907 -963.522 145.907 -963.509 145.905L-940.525 143.059L-920.606 138.789C-920.594 138.786 -920.583 138.785 -920.571 138.784L-900.669 138.073C-900.658 138.073 -900.647 138.073 -900.636 138.075L-879.183 140.922L-857.713 146.62L-837.817 153.018C-837.791 153.026 -837.763 153.029 -837.736 153.027L-816.343 150.897C-816.32 150.895 -816.296 150.897 -816.273 150.903L-774.968 161.561C-774.925 161.572 -774.88 161.569 -774.839 161.551L-732.014 143.081C-731.98 143.066 -731.944 143.061 -731.907 143.066L-690.574 148.755C-690.563 148.756 -690.551 148.757 -690.54 148.756L-649.171 147.333C-649.158 147.333 -649.145 147.333 -649.132 147.336L-627.682 150.894L-606.243 157.295C-606.223 157.301 -606.201 157.304 -606.179 157.303L-564.833 155.881C-564.815 155.88 -564.798 155.882 -564.781 155.886L-543.4 160.851C-543.359 160.861 -543.316 160.857 -543.276 160.84L-523.423 152.328C-523.408 152.322 -523.393 152.317 -523.377 152.314L-501.957 148.761C-501.94 148.758 -501.922 148.758 -501.905 148.76L-480.489 150.891C-480.471 150.893 -480.453 150.897 -480.435 150.904L-460.572 158.711C-460.541 158.723 -460.508 158.727 -460.476 158.723L-435.988 155.88L-416.052 153.031L-397.666 148.761C-397.655 148.758 -397.644 148.757 -397.634 148.756L-376.216 147.335C-376.192 147.333 -376.169 147.336 -376.146 147.343L-354.771 153.725C-354.732 153.737 -354.69 153.736 -354.651 153.723L-333.272 146.63C-333.251 146.624 -333.23 146.62 -333.209 146.62H-313.328C-313.313 146.62 -313.297 146.622 -313.283 146.625L-291.865 151.599C-291.845 151.604 -291.825 151.605 -291.805 151.604L-271.899 150.182H-250.43L-228.995 152.315C-228.972 152.317 -228.949 152.316 -228.926 152.31L-209.054 147.34C-209.034 147.335 -209.013 147.333 -208.993 147.334L-187.575 148.756C-187.561 148.757 -187.547 148.759 -187.534 148.763L-167.618 154.455L-146.185 158.011C-146.161 158.015 -146.136 158.014 -146.113 158.01L-103.27 149.481C-103.23 149.473 -103.189 149.478 -103.152 149.494L-83.3008 158.005C-83.2825 158.013 -83.2631 158.018 -83.2433 158.02L-63.3371 160.154H-40.3781C-40.349 160.154 -40.3203 160.147 -40.2939 160.135L-20.4507 150.918C-20.4162 150.902 -20.3778 150.897 -20.3401 150.902L1.07178 153.743L20.974 155.165C20.9964 155.167 21.0184 155.172 21.039 155.181L42.4775 164.427L63.8495 170.809C63.9108 170.827 63.9772 170.815 64.0281 170.776L85.3783 154.485C85.4035 154.465 85.4331 154.452 85.4644 154.447L105.303 150.903C105.336 150.897 105.369 150.899 105.401 150.91L126.769 157.999C126.804 158.011 126.841 158.012 126.877 158.004L148.247 153.041C148.277 153.034 148.308 153.034 148.337 153.041L169.762 158.017L211.167 162.291L232.59 161.58C232.621 161.579 232.651 161.571 232.678 161.556L252.513 150.926C252.552 150.905 252.597 150.898 252.64 150.905L274.02 154.452C274.035 154.454 274.051 154.455 274.066 154.454L295.512 153.031H316.982L336.888 154.453C336.908 154.455 336.928 154.453 336.947 154.448L358.357 149.476C358.377 149.472 358.398 149.47 358.419 149.472L399.774 153.029C399.787 153.03 399.8 153.03 399.813 153.029L419.707 150.896C419.722 150.895 419.737 150.895 419.752 150.897L442.715 153.741C442.727 153.742 442.739 153.743 442.751 153.742L479.538 151.606H502.541L523.978 154.451C523.999 154.454 524.022 154.453 524.043 154.449L545.435 150.191C545.465 150.185 545.496 150.186 545.525 150.193L566.914 155.87C566.938 155.877 566.962 155.879 566.987 155.876L586.886 153.743L609.865 154.455C609.881 154.455 609.897 154.454 609.913 154.45L629.808 150.185C629.819 150.183 629.831 150.181 629.843 150.181L649.725 149.471C649.749 149.47 649.773 149.473 649.795 149.481L671.2 156.582C671.22 156.589 671.242 156.592 671.263 156.592H712.621C712.631 156.592 712.642 156.591 712.652 156.59L735.613 153.035C735.631 153.032 735.649 153.032 735.667 153.034L754.022 155.165C754.035 155.167 754.049 155.167 754.063 155.166L777.015 153.034C777.035 153.032 777.056 153.033 777.075 153.037L796.961 157.3C796.975 157.303 796.989 157.304 797.003 157.304H818.433C818.445 157.304 818.457 157.306 818.469 157.308L838.366 160.862C838.38 160.865 838.394 160.866 838.408 160.865L859.857 160.154L879.754 160.865C879.78 160.865 879.805 160.861 879.83 160.853L901.233 153.042C901.252 153.034 901.273 153.03 901.294 153.03L922.7 152.32C922.721 152.319 922.743 152.322 922.763 152.328L944.151 158.714C944.184 158.724 944.22 158.725 944.253 158.717L965.611 153.757C965.65 153.748 965.692 153.751 965.729 153.766L985.545 161.553C985.585 161.57 985.63 161.572 985.673 161.56L1005.53 155.885C1005.54 155.882 1005.55 155.879 1005.56 155.878L1028.53 153.745C1028.54 153.744 1028.55 153.744 1028.57 153.745L1048.48 155.88H1069.95L1089.87 156.591C1089.88 156.592 1089.89 156.594 1089.91 156.597L1111.33 161.572C1111.35 161.576 1111.37 161.582 1111.38 161.59L1132.77 172.945C1132.81 172.964 1132.85 172.972 1132.89 172.966L1154.24 170.134C1154.28 170.128 1154.31 170.112 1154.34 170.087L1174.14 153.107C1174.2 153.06 1174.28 153.046 1174.34 153.071L1195.64 160.843C1195.68 160.858 1195.73 160.859 1195.77 160.847L1217.13 154.47C1217.16 154.46 1217.19 154.459 1217.22 154.465L1238.6 158.721C1238.63 158.726 1238.66 158.726 1238.68 158.72L1258.55 154.462C1258.57 154.458 1258.59 154.456 1258.61 154.459L1278.5 156.59C1278.51 156.592 1278.52 156.594 1278.53 156.597L1299.96 162.997C1299.98 163.001 1299.99 163.003 1300.01 163.004L1319.92 164.427H1364.38C1364.39 164.427 1364.4 164.426 1364.41 164.424L1384.29 160.873C1384.31 160.868 1384.34 160.869 1384.37 160.876L1404.21 165.838C1404.25 165.847 1404.28 165.846 1404.32 165.834L1425.68 158.749C1425.71 158.736 1425.76 158.735 1425.8 158.747L1447.15 165.124C1447.19 165.134 1447.22 165.135 1447.26 165.125L1468.67 159.441L1487 156.604C1487.05 156.597 1487.1 156.609 1487.14 156.638L1508.51 171.528C1508.54 171.543 1508.56 171.553 1508.58 171.559L1530 176.533C1530.01 176.535 1530.02 176.537 1530.03 176.537L1551.46 177.959C1551.48 177.96 1551.49 177.959 1551.51 177.955L1595.96 168.701L1614.31 163.728C1614.34 163.72 1614.38 163.719 1614.41 163.726L1635.8 168.694C1635.82 168.699 1635.84 168.7 1635.86 168.699L1657.28 167.278C1657.29 167.277 1657.31 167.277 1657.32 167.278L1677.21 169.41C1677.23 169.412 1677.25 169.412 1677.26 169.409L1698.68 165.856C1698.7 165.853 1698.71 165.853 1698.73 165.855L1718.6 167.984C1718.63 167.987 1718.66 167.984 1718.68 167.975L1740.09 160.873C1740.1 160.868 1740.12 160.865 1740.13 160.864L1761.53 158.734C1761.56 158.731 1761.6 158.736 1761.63 158.749L1781.52 167.277L1802.89 176.494C1802.95 176.52 1803.02 176.515 1803.08 176.479L1822.86 163.757C1822.9 163.73 1822.95 163.72 1823 163.728L1844.36 167.271C1844.38 167.275 1844.4 167.275 1844.43 167.271L1885.73 160.166C1885.77 160.158 1885.82 160.166 1885.86 160.189L1907.21 172.23C1907.25 172.251 1907.29 172.26 1907.33 172.254L1930.27 169.413L1950.15 164.443C1950.19 164.433 1950.23 164.436 1950.27 164.451L1970.11 172.25C1970.13 172.258 1970.15 172.263 1970.18 172.264L1990.08 172.975L2032.96 176.531C2033 176.535 2033.04 176.527 2033.07 176.509L2054.44 165.166C2054.47 165.149 2054.51 165.141 2054.55 165.143L2075.92 166.562C2075.95 166.563 2075.97 166.569 2075.99 166.578L2095.82 175.082C2095.87 175.101 2095.92 175.103 2095.97 175.088L2117.34 167.996C2117.36 167.991 2117.37 167.988 2117.39 167.987L2138.79 165.856C2138.82 165.853 2138.85 165.856 2138.87 165.863L2160.29 172.257C2160.3 172.261 2160.31 172.263 2160.32 172.265L2180.18 174.393C2180.22 174.397 2180.26 174.389 2180.29 174.371L2201.64 163.037C2201.69 163.015 2201.73 163.008 2201.78 163.018L2221.63 167.273C2221.64 167.276 2221.65 167.277 2221.66 167.277L2243.1 168.7C2243.11 168.701 2243.12 168.7 2243.13 168.699L2263.05 166.564L2284.5 167.276C2284.51 167.276 2284.53 167.278 2284.54 167.281L2305.97 172.257C2305.98 172.261 2306 172.263 2306.01 172.263H2328.96C2328.98 172.263 2329 172.26 2329.02 172.254L2347.36 166.574C2347.38 166.568 2347.41 166.565 2347.43 166.565L2368.86 167.277" stroke="#2E90FA" stroke-width="2" stroke-linecap="round"/>
<path d="M-1008 129.525L-992.685 120.978L-966.651 129.525L-931.427 133.087L-908.455 125.251L-851.791 123.827L-808.911 118.128L-747.652 135.223L-720.086 128.813L-637.388 124.539L-629.73 118.128L-615.947 124.539L-582.255 113.142L-536.311 123.114L-476.585 116.704L-450.55 126.676L-427.578 120.265L-390.823 131.662L-361.725 126.676L-321.907 133.087L-294.341 141.634L-269.838 133.087L-234.614 138.785L-213.174 123.114L-182.545 138.785L-96.7833 123.114L-24.8049 135.936L8.88718 129.525L27.2647 135.936L59.4252 126.676L91.5858 134.511L165.096 126.676L224.823 137.36L247.794 128.813L267.703 139.497L307.521 113.142L339.682 140.209L361.122 135.223L371.842 127.388L387.157 137.36L408.597 134.511L422.38 127.388L442.289 123.114L465.261 130.237L485.17 127.388L491.296 120.265L515.799 128.813L529.582 124.539L552.554 130.237L584.715 133.087L609.218 138.785L644.442 135.936L658.225 127.388L676.602 121.69L693.448 128.813L714.889 106.732L743.986 138.785L783.804 128.813L802.182 131.662L828.216 127.388H864.971L897.132 136.648L921.635 128.813L964.516 133.799L987.488 127.388L1011.99 138.073L1048.75 127.388L1087.03 138.073H1111.54L1140.63 143.771L1172.79 154.455L1230.99 145.908L1253.96 139.497L1292.25 148.045L1316.75 143.771L1347.38 152.318L1370.35 155.168L1394.86 148.757L1427.02 154.455L1445.39 161.578L1472.96 152.318L1495.93 147.332L1521.97 150.182L1549.53 140.922L1577.1 155.168L1606.2 153.743L1630.7 147.332L1667.45 140.209L1688.9 147.332L1717.99 148.045L1736.37 153.743L1756.28 140.922L1783.85 160.866L1822.13 147.332L1842.04 153.743L1869.61 143.771L1903.3 148.045L1940.05 167.277L1973.75 158.729L1982.93 148.045L1995.19 158.729L2048.79 147.332L2082.48 134.511L2113.11 152.318L2157.52 140.209L2227.97 144.483L2260.13 137.36L2303.01 144.483L2348.95 147.332L2365.8 160.154" stroke="#15B79E" stroke-width="2" stroke-linecap="round"/>
<path d="M-992.664 73.2542L-966.558 63.2821L-948.131 49.7486L-917.418 67.5559L-879.027 77.528L-852.921 63.2821L-808.387 51.1732L-791.495 34.7905L-763.854 58.2961L-690.143 76.1034L-670.18 63.2821L-653.288 71.1173L-604.147 25.5307L-538.115 83.2263L-501.26 86.0754L-470.547 101.034L-427.549 63.2821L-392.229 60.433L-378.408 48.324L-350.767 44.7626L-343.089 28.3799L-310.84 77.528L-266.307 53.3101L-240.201 48.324L-221.773 35.5028L-200.274 30.5168L-186.454 15.5587L-168.026 39.0643L-125.028 50.4609L-115.814 71.8296L-69.7451 83.2263L-49.7818 96.7598L-31.3541 101.034L-15.9977 85.3631L17.7864 78.9525L36.214 68.9805L60.7842 76.1034L94.5683 64.7067L102.246 53.3101L122.21 76.1034L143.709 66.8436L162.136 73.2542L188.242 71.8296L211.277 76.1034L255.81 68.9805L283.452 74.6788L311.093 62.5699L344.877 71.8296L367.912 66.8436L398.625 73.2542L423.195 55.4469L453.908 66.8436L521.476 47.6118L573.688 65.419L592.115 57.5838H612.079L625.899 51.1732L658.148 44.0503L681.182 47.6118L710.36 55.4469L748.75 49.7486L802.498 47.6118L810.176 41.2011L845.496 56.1592L863.923 49.0363L894.636 44.0503L939.17 50.4609L965.276 41.9134L1009.81 54.7347L1042.06 36.9274L1078.91 46.8995L1105.02 38.352L1132.66 36.9274L1166.44 32.6537L1204.84 34.7905L1226.33 41.2011L1255.51 39.0643L1281.62 28.3799L1298.51 15.5587L1326.15 36.9274L1379.9 28.3799L1421.36 44.0503L1458.22 54.7347L1531.93 44.0503L1562.64 58.2961L1605.64 4.16203L1637.89 41.2011L1706.99 21.257L1756.13 44.0503L1834.45 16.271L1851.34 -7.23462L1889.73 49.0363L2026.4 59.0084L2063.26 28.3799L2080.15 12.7095L2109.33 31.2291L2121.61 41.2011L2143.11 31.2291L2172.29 21.257L2212.21 32.6537L2250.61 28.3799L2299.75 12.7095L2336.6 41.2011L2381.13 21.257" stroke="#D444F1" stroke-width="2" stroke-linecap="round"/>
</g>
<defs>
<clipPath id="clip0_2673_96444">
<rect width="577" height="185" fill="white"/>
</clipPath>
</defs>
</svg>
