<svg width="20" height="21" viewBox="0 0 20 21" fill="none" xmlns="http://www.w3.org/2000/svg">
<path d="M17.5 10.7195L7.5 10.7195M17.5 5.7195L7.5 5.7195M17.5 15.7195L7.5 15.7195M4.16667 10.7195C4.16667 11.1797 3.79357 11.5528 3.33333 11.5528C2.8731 11.5528 2.5 11.1797 2.5 10.7195C2.5 10.2593 2.8731 9.88617 3.33333 9.88617C3.79357 9.88617 4.16667 10.2593 4.16667 10.7195ZM4.16667 5.7195C4.16667 6.17974 3.79357 6.55284 3.33333 6.55284C2.8731 6.55284 2.5 6.17974 2.5 5.7195C2.5 5.25927 2.8731 4.88617 3.33333 4.88617C3.79357 4.88617 4.16667 5.25927 4.16667 5.7195ZM4.16667 15.7195C4.16667 16.1797 3.79357 16.5528 3.33333 16.5528C2.8731 16.5528 2.5 16.1797 2.5 15.7195C2.5 15.2593 2.8731 14.8862 3.33333 14.8862C3.79357 14.8862 4.16667 15.2593 4.16667 15.7195Z" stroke="#475467" stroke-width="1.5" stroke-linecap="round" stroke-linejoin="round"/>
</svg>
