<svg width="17" height="18" viewBox="0 0 17 18" fill="none" xmlns="http://www.w3.org/2000/svg">
<path d="M8.5013 9.35071C8.8925 9.35071 9.20964 9.03358 9.20964 8.64237C9.20964 8.25117 8.8925 7.93404 8.5013 7.93404C8.1101 7.93404 7.79297 8.25117 7.79297 8.64237C7.79297 9.03358 8.1101 9.35071 8.5013 9.35071Z" stroke="#667085" stroke-width="1.5" stroke-linecap="round" stroke-linejoin="round"/>
<path d="M8.5013 4.39237C8.8925 4.39237 9.20964 4.07524 9.20964 3.68404C9.20964 3.29284 8.8925 2.97571 8.5013 2.97571C8.1101 2.97571 7.79297 3.29284 7.79297 3.68404C7.79297 4.07524 8.1101 4.39237 8.5013 4.39237Z" stroke="#667085" stroke-width="1.5" stroke-linecap="round" stroke-linejoin="round"/>
<path d="M8.5013 14.309C8.8925 14.309 9.20964 13.9919 9.20964 13.6007C9.20964 13.2095 8.8925 12.8924 8.5013 12.8924C8.1101 12.8924 7.79297 13.2095 7.79297 13.6007C7.79297 13.9919 8.1101 14.309 8.5013 14.309Z" stroke="#667085" stroke-width="1.5" stroke-linecap="round" stroke-linejoin="round"/>
</svg>
