<svg width="13" height="13" viewBox="0 0 13 13" fill="none" xmlns="http://www.w3.org/2000/svg">
<g clip-path="url(#clip0_5132_16957)">
<path d="M6.06641 11.6825C8.82783 11.6825 11.0664 9.44392 11.0664 6.6825C11.0664 3.92107 8.82783 1.6825 6.06641 1.6825C3.30498 1.6825 1.06641 3.92107 1.06641 6.6825C1.06641 9.44392 3.30498 11.6825 6.06641 11.6825Z" fill="#FBE8FF"/>
<path d="M7.81641 5.1825C7.81641 5.32057 7.70448 5.4325 7.56641 5.4325C7.42834 5.4325 7.31641 5.32057 7.31641 5.1825C7.31641 5.04442 7.42834 4.9325 7.56641 4.9325C7.70448 4.9325 7.81641 5.04442 7.81641 5.1825Z" fill="#FBE8FF"/>
<path d="M4.81641 5.1825C4.81641 5.32057 4.70448 5.4325 4.56641 5.4325C4.42833 5.4325 4.31641 5.32057 4.31641 5.1825C4.31641 5.04442 4.42833 4.9325 4.56641 4.9325C4.70448 4.9325 4.81641 5.04442 4.81641 5.1825Z" fill="#FBE8FF"/>
<path d="M4.06641 8.1825H8.06641M7.56641 5.1825H7.57141M4.56641 5.1825H4.57141M11.0664 6.6825C11.0664 9.44392 8.82783 11.6825 6.06641 11.6825C3.30498 11.6825 1.06641 9.44392 1.06641 6.6825C1.06641 3.92107 3.30498 1.6825 6.06641 1.6825C8.82783 1.6825 11.0664 3.92107 11.0664 6.6825ZM7.81641 5.1825C7.81641 5.32057 7.70448 5.4325 7.56641 5.4325C7.42834 5.4325 7.31641 5.32057 7.31641 5.1825C7.31641 5.04442 7.42834 4.9325 7.56641 4.9325C7.70448 4.9325 7.81641 5.04442 7.81641 5.1825ZM4.81641 5.1825C4.81641 5.32057 4.70448 5.4325 4.56641 5.4325C4.42834 5.4325 4.31641 5.32057 4.31641 5.1825C4.31641 5.04442 4.42834 4.9325 4.56641 4.9325C4.70448 4.9325 4.81641 5.04442 4.81641 5.1825Z" stroke="#D444F1" stroke-width="0.75" stroke-linecap="round" stroke-linejoin="round"/>
</g>
<defs>
<clipPath id="clip0_5132_16957">
<rect width="12" height="12" fill="white" transform="translate(0.0664062 0.682495)"/>
</clipPath>
</defs>
</svg>
