<svg width="12" height="12" viewBox="0 0 12 12" fill="none" xmlns="http://www.w3.org/2000/svg">
<g clip-path="url(#clip0_2545_58250)">
<path d="M6 11C8.76142 11 11 8.76142 11 6C11 3.23858 8.76142 1 6 1C3.23858 1 1 3.23858 1 6C1 8.76142 3.23858 11 6 11Z" fill="#EBE9FE"/>
<path d="M7.75 4.5C7.75 4.63807 7.63807 4.75 7.5 4.75C7.36193 4.75 7.25 4.63807 7.25 4.5C7.25 4.36193 7.36193 4.25 7.5 4.25C7.63807 4.25 7.75 4.36193 7.75 4.5Z" fill="#EBE9FE"/>
<path d="M4.75 4.5C4.75 4.63807 4.63807 4.75 4.5 4.75C4.36193 4.75 4.25 4.63807 4.25 4.5C4.25 4.36193 4.36193 4.25 4.5 4.25C4.63807 4.25 4.75 4.36193 4.75 4.5Z" fill="#EBE9FE"/>
<path d="M6 8.75C7.25025 8.75 8.25 7.8335 8.25 7H3.75C3.75 7.8335 4.74975 8.75 6 8.75Z" fill="#EBE9FE"/>
<path d="M7.5 4.5H7.505M4.5 4.5H4.505M11 6C11 8.76142 8.76142 11 6 11C3.23858 11 1 8.76142 1 6C1 3.23858 3.23858 1 6 1C8.76142 1 11 3.23858 11 6ZM7.75 4.5C7.75 4.63807 7.63807 4.75 7.5 4.75C7.36193 4.75 7.25 4.63807 7.25 4.5C7.25 4.36193 7.36193 4.25 7.5 4.25C7.63807 4.25 7.75 4.36193 7.75 4.5ZM4.75 4.5C4.75 4.63807 4.63807 4.75 4.5 4.75C4.36193 4.75 4.25 4.63807 4.25 4.5C4.25 4.36193 4.36193 4.25 4.5 4.25C4.63807 4.25 4.75 4.36193 4.75 4.5ZM6 8.75C7.25025 8.75 8.25 7.8335 8.25 7H3.75C3.75 7.8335 4.74975 8.75 6 8.75Z" stroke="#7A5AF8" stroke-width="0.75" stroke-linecap="round" stroke-linejoin="round"/>
</g>
<defs>
<clipPath id="clip0_2545_58250">
<rect width="12" height="12" fill="white"/>
</clipPath>
</defs>
</svg>
