<svg width="13" height="13" viewBox="0 0 13 13" fill="none" xmlns="http://www.w3.org/2000/svg">
<g clip-path="url(#clip0_5132_16921)">
<path d="M6.06641 11.3597C8.82783 11.3597 11.0664 9.12117 11.0664 6.35974C11.0664 3.59832 8.82783 1.35974 6.06641 1.35974C3.30498 1.35974 1.06641 3.59832 1.06641 6.35974C1.06641 9.12117 3.30498 11.3597 6.06641 11.3597Z" fill="#FBE8FF"/>
<path d="M7.81641 4.85974C7.81641 4.99781 7.70448 5.10974 7.56641 5.10974C7.42834 5.10974 7.31641 4.99781 7.31641 4.85974C7.31641 4.72167 7.42834 4.60974 7.56641 4.60974C7.70448 4.60974 7.81641 4.72167 7.81641 4.85974Z" fill="#FBE8FF"/>
<path d="M4.81641 4.85974C4.81641 4.99781 4.70448 5.10974 4.56641 5.10974C4.42833 5.10974 4.31641 4.99781 4.31641 4.85974C4.31641 4.72167 4.42833 4.60974 4.56641 4.60974C4.70448 4.60974 4.81641 4.72167 4.81641 4.85974Z" fill="#FBE8FF"/>
<path d="M4.06641 7.85974H8.06641M7.56641 4.85974H7.57141M4.56641 4.85974H4.57141M11.0664 6.35974C11.0664 9.12117 8.82783 11.3597 6.06641 11.3597C3.30498 11.3597 1.06641 9.12117 1.06641 6.35974C1.06641 3.59832 3.30498 1.35974 6.06641 1.35974C8.82783 1.35974 11.0664 3.59832 11.0664 6.35974ZM7.81641 4.85974C7.81641 4.99781 7.70448 5.10974 7.56641 5.10974C7.42834 5.10974 7.31641 4.99781 7.31641 4.85974C7.31641 4.72167 7.42834 4.60974 7.56641 4.60974C7.70448 4.60974 7.81641 4.72167 7.81641 4.85974ZM4.81641 4.85974C4.81641 4.99781 4.70448 5.10974 4.56641 5.10974C4.42834 5.10974 4.31641 4.99781 4.31641 4.85974C4.31641 4.72167 4.42834 4.60974 4.56641 4.60974C4.70448 4.60974 4.81641 4.72167 4.81641 4.85974Z" stroke="#D444F1" stroke-width="0.75" stroke-linecap="round" stroke-linejoin="round"/>
</g>
<defs>
<clipPath id="clip0_5132_16921">
<rect width="12" height="12" fill="white" transform="translate(0.0664062 0.359741)"/>
</clipPath>
</defs>
</svg>
