<svg width="13" height="12" viewBox="0 0 13 12" fill="none" xmlns="http://www.w3.org/2000/svg">
<g clip-path="url(#clip0_5132_14665)">
<path d="M6.06641 11C8.82783 11 11.0664 8.76142 11.0664 6C11.0664 3.23858 8.82783 1 6.06641 1C3.30498 1 1.06641 3.23858 1.06641 6C1.06641 8.76142 3.30498 11 6.06641 11Z" fill="#FBE8FF"/>
<path d="M7.81641 4.5C7.81641 4.63807 7.70448 4.75 7.56641 4.75C7.42834 4.75 7.31641 4.63807 7.31641 4.5C7.31641 4.36193 7.42834 4.25 7.56641 4.25C7.70448 4.25 7.81641 4.36193 7.81641 4.5Z" fill="#FBE8FF"/>
<path d="M4.81641 4.5C4.81641 4.63807 4.70448 4.75 4.56641 4.75C4.42833 4.75 4.31641 4.63807 4.31641 4.5C4.31641 4.36193 4.42833 4.25 4.56641 4.25C4.70448 4.25 4.81641 4.36193 4.81641 4.5Z" fill="#FBE8FF"/>
<path d="M4.06641 7.5H8.06641M7.56641 4.5H7.57141M4.56641 4.5H4.57141M11.0664 6C11.0664 8.76142 8.82783 11 6.06641 11C3.30498 11 1.06641 8.76142 1.06641 6C1.06641 3.23858 3.30498 1 6.06641 1C8.82783 1 11.0664 3.23858 11.0664 6ZM7.81641 4.5C7.81641 4.63807 7.70448 4.75 7.56641 4.75C7.42834 4.75 7.31641 4.63807 7.31641 4.5C7.31641 4.36193 7.42834 4.25 7.56641 4.25C7.70448 4.25 7.81641 4.36193 7.81641 4.5ZM4.81641 4.5C4.81641 4.63807 4.70448 4.75 4.56641 4.75C4.42834 4.75 4.31641 4.63807 4.31641 4.5C4.31641 4.36193 4.42834 4.25 4.56641 4.25C4.70448 4.25 4.81641 4.36193 4.81641 4.5Z" stroke="#D444F1" stroke-width="0.75" stroke-linecap="round" stroke-linejoin="round"/>
</g>
<defs>
<clipPath id="clip0_5132_14665">
<rect width="12" height="12" fill="white" transform="translate(0.0664062)"/>
</clipPath>
</defs>
</svg>
