<svg width="11" height="12" viewBox="0 0 11 12" fill="none" xmlns="http://www.w3.org/2000/svg">
<g clip-path="url(#clip0_5115_14420)">
<path d="M7.33464 7.83329C7.33464 7.83329 6.64714 6.91663 5.5013 6.91663C4.35547 6.91663 3.66797 7.83329 3.66797 7.83329M6.8763 4.62496H6.88089M4.1263 4.62496H4.13089M10.0846 5.99996C10.0846 8.53126 8.03261 10.5833 5.5013 10.5833C2.97 10.5833 0.917969 8.53126 0.917969 5.99996C0.917969 3.46865 2.97 1.41663 5.5013 1.41663C8.03261 1.41663 10.0846 3.46865 10.0846 5.99996ZM7.10547 4.62496C7.10547 4.75152 7.00287 4.85413 6.8763 4.85413C6.74974 4.85413 6.64714 4.75152 6.64714 4.62496C6.64714 4.49839 6.74974 4.39579 6.8763 4.39579C7.00287 4.39579 7.10547 4.49839 7.10547 4.62496ZM4.35547 4.62496C4.35547 4.75152 4.25287 4.85413 4.1263 4.85413C3.99974 4.85413 3.89714 4.75152 3.89714 4.62496C3.89714 4.49839 3.99974 4.39579 4.1263 4.39579C4.25287 4.39579 4.35547 4.49839 4.35547 4.62496Z" stroke="#475467" stroke-linecap="round" stroke-linejoin="round"/>
</g>
<defs>
<clipPath id="clip0_5115_14420">
<rect width="11" height="11" fill="white" transform="translate(0 0.5)"/>
</clipPath>
</defs>
</svg>
