<svg width="13" height="13" viewBox="0 0 13 13" fill="none" xmlns="http://www.w3.org/2000/svg">
<g clip-path="url(#clip0_5132_16379)">
<path d="M6.06641 11.0423C8.82783 11.0423 11.0664 8.80372 11.0664 6.0423C11.0664 3.28087 8.82783 1.0423 6.06641 1.0423C3.30498 1.0423 1.06641 3.28087 1.06641 6.0423C1.06641 8.80372 3.30498 11.0423 6.06641 11.0423Z" fill="#EBE9FE"/>
<path d="M7.81641 4.5423C7.81641 4.68037 7.70448 4.7923 7.56641 4.7923C7.42834 4.7923 7.31641 4.68037 7.31641 4.5423C7.31641 4.40423 7.42834 4.2923 7.56641 4.2923C7.70448 4.2923 7.81641 4.40423 7.81641 4.5423Z" fill="#EBE9FE"/>
<path d="M4.81641 4.5423C4.81641 4.68037 4.70448 4.7923 4.56641 4.7923C4.42833 4.7923 4.31641 4.68037 4.31641 4.5423C4.31641 4.40423 4.42833 4.2923 4.56641 4.2923C4.70448 4.2923 4.81641 4.40423 4.81641 4.5423Z" fill="#EBE9FE"/>
<path d="M6.06641 8.7923C7.31666 8.7923 8.31641 7.8758 8.31641 7.0423H3.81641C3.81641 7.8758 4.81616 8.7923 6.06641 8.7923Z" fill="#EBE9FE"/>
<path d="M7.56641 4.5423H7.57141M4.56641 4.5423H4.57141M11.0664 6.0423C11.0664 8.80372 8.82783 11.0423 6.06641 11.0423C3.30498 11.0423 1.06641 8.80372 1.06641 6.0423C1.06641 3.28087 3.30498 1.0423 6.06641 1.0423C8.82783 1.0423 11.0664 3.28087 11.0664 6.0423ZM7.81641 4.5423C7.81641 4.68037 7.70448 4.7923 7.56641 4.7923C7.42834 4.7923 7.31641 4.68037 7.31641 4.5423C7.31641 4.40423 7.42834 4.2923 7.56641 4.2923C7.70448 4.2923 7.81641 4.40423 7.81641 4.5423ZM4.81641 4.5423C4.81641 4.68037 4.70448 4.7923 4.56641 4.7923C4.42834 4.7923 4.31641 4.68037 4.31641 4.5423C4.31641 4.40423 4.42834 4.2923 4.56641 4.2923C4.70448 4.2923 4.81641 4.40423 4.81641 4.5423ZM6.06641 8.7923C7.31666 8.7923 8.31641 7.8758 8.31641 7.0423H3.81641C3.81641 7.8758 4.81616 8.7923 6.06641 8.7923Z" stroke="#7A5AF8" stroke-width="0.75" stroke-linecap="round" stroke-linejoin="round"/>
</g>
<defs>
<clipPath id="clip0_5132_16379">
<rect width="12" height="12" fill="white" transform="translate(0.0664062 0.0422974)"/>
</clipPath>
</defs>
</svg>
