<svg width="11" height="11" viewBox="0 0 11 11" fill="none" xmlns="http://www.w3.org/2000/svg">
<g clip-path="url(#clip0_5115_13820)">
<path d="M6.8763 4.12496H6.88089M4.1263 4.12496H4.13089M10.0846 5.49996C10.0846 8.03126 8.03261 10.0833 5.5013 10.0833C2.97 10.0833 0.917969 8.03126 0.917969 5.49996C0.917969 2.96865 2.97 0.916626 5.5013 0.916626C8.03261 0.916626 10.0846 2.96865 10.0846 5.49996ZM7.10547 4.12496C7.10547 4.25152 7.00287 4.35413 6.8763 4.35413C6.74974 4.35413 6.64714 4.25152 6.64714 4.12496C6.64714 3.99839 6.74974 3.89579 6.8763 3.89579C7.00287 3.89579 7.10547 3.99839 7.10547 4.12496ZM4.35547 4.12496C4.35547 4.25152 4.25287 4.35413 4.1263 4.35413C3.99974 4.35413 3.89714 4.25152 3.89714 4.12496C3.89714 3.99839 3.99974 3.89579 4.1263 3.89579C4.25287 3.89579 4.35547 3.99839 4.35547 4.12496ZM5.5013 8.02079C6.64736 8.02079 7.5638 7.18067 7.5638 6.41663H3.4388C3.4388 7.18067 4.35524 8.02079 5.5013 8.02079Z" stroke="#475467" stroke-linecap="round" stroke-linejoin="round"/>
</g>
<defs>
<clipPath id="clip0_5115_13820">
<rect width="11" height="11" fill="white"/>
</clipPath>
</defs>
</svg>
