<svg width="19" height="20" viewBox="0 0 19 20" fill="none" xmlns="http://www.w3.org/2000/svg">
<path d="M1.58203 4.14167C1.58203 3.69829 1.58203 3.4766 1.66832 3.30726C1.74422 3.1583 1.86533 3.03719 2.01429 2.96129C2.18364 2.875 2.40532 2.875 2.8487 2.875H16.1487C16.5921 2.875 16.8138 2.875 16.9831 2.96129C17.1321 3.03719 17.2532 3.1583 17.3291 3.30726C17.4154 3.4766 17.4154 3.69829 17.4154 4.14167V4.6716C17.4154 4.8844 17.4154 4.9908 17.3894 5.08974C17.3663 5.17741 17.3284 5.26048 17.2772 5.33531C17.2195 5.41976 17.1391 5.48944 16.9783 5.62881L11.915 10.017C11.7541 10.1564 11.6737 10.2261 11.616 10.3105C11.5648 10.3854 11.5269 10.4684 11.5039 10.5561C11.4779 10.655 11.4779 10.7614 11.4779 10.9742V15.1129C11.4779 15.2677 11.4779 15.3451 11.4529 15.412C11.4308 15.4712 11.3949 15.5242 11.3482 15.5666C11.2954 15.6147 11.2235 15.6434 11.0797 15.7009L8.38808 16.7776C8.09711 16.894 7.95162 16.9522 7.83483 16.9279C7.7327 16.9067 7.64307 16.846 7.58544 16.759C7.51953 16.6596 7.51953 16.5029 7.51953 16.1895V10.9742C7.51953 10.7614 7.51953 10.655 7.49353 10.5561C7.47048 10.4684 7.43255 10.3854 7.38139 10.3105C7.32366 10.2261 7.24325 10.1564 7.08244 10.017L2.01912 5.62881C1.85831 5.48944 1.77791 5.41976 1.72017 5.33531C1.66901 5.26048 1.63108 5.17741 1.60803 5.08974C1.58203 4.9908 1.58203 4.8844 1.58203 4.6716V4.14167Z" stroke="#7A5AF8" stroke-width="1.5" stroke-linecap="round" stroke-linejoin="round"/>
</svg>
