<svg width="19" height="18" viewBox="0 0 19 18" fill="none" xmlns="http://www.w3.org/2000/svg">
<path d="M2 3.45C2 3.02996 2 2.81994 2.08175 2.65951C2.15365 2.51839 2.26839 2.40365 2.40951 2.33175C2.56994 2.25 2.77996 2.25 3.2 2.25H15.8C16.22 2.25 16.4301 2.25 16.5905 2.33175C16.7316 2.40365 16.8463 2.51839 16.9183 2.65951C17 2.81994 17 3.02996 17 3.45V3.95205C17 4.15364 17 4.25444 16.9754 4.34817C16.9535 4.43123 16.9176 4.50993 16.8691 4.58082C16.8144 4.66082 16.7383 4.72684 16.5859 4.85887L11.7891 9.01613C11.6367 9.14816 11.5606 9.21418 11.5059 9.29418C11.4574 9.36507 11.4215 9.44377 11.3996 9.52683C11.375 9.62056 11.375 9.72136 11.375 9.92295V13.8438C11.375 13.9905 11.375 14.0638 11.3513 14.1272C11.3304 14.1832 11.2964 14.2334 11.2522 14.2736C11.2021 14.3192 11.134 14.3464 10.9978 14.4009L8.44783 15.4209C8.17218 15.5311 8.03435 15.5863 7.9237 15.5633C7.82695 15.5432 7.74204 15.4857 7.68744 15.4033C7.625 15.3091 7.625 15.1607 7.625 14.8638V9.92295C7.625 9.72136 7.625 9.62056 7.60037 9.52683C7.57854 9.44377 7.5426 9.36507 7.49413 9.29418C7.43943 9.21418 7.36326 9.14816 7.21092 9.01613L2.41408 4.85887C2.26174 4.72684 2.18557 4.66082 2.13087 4.58082C2.0824 4.50993 2.04646 4.43123 2.02463 4.34817C2 4.25444 2 4.15364 2 3.95205V3.45Z" stroke="#7A5AF8" stroke-width="1.5" stroke-linecap="round" stroke-linejoin="round"/>
</svg>
