<svg width="165" height="165" viewBox="0 0 165 165" fill="none" xmlns="http://www.w3.org/2000/svg">
<mask id="path-1-inside-1_2673_96484" fill="white">
<path d="M76.0241 146.039C74.9807 156.276 82.5154 165.639 92.7261 164.364C99.703 163.492 106.565 161.729 113.141 159.099C125.51 154.151 136.497 146.281 145.162 136.163C153.828 126.044 159.914 113.977 162.9 100.994C165.887 88.0115 165.685 74.4984 162.312 61.6105C158.938 48.7226 152.494 36.8432 143.53 26.9881C134.566 17.133 123.349 9.5953 110.837 5.0194C98.3259 0.443505 84.8923 -1.03444 71.6852 0.711914C64.6642 1.6403 57.8182 3.46523 51.3089 6.12352C41.7827 10.0139 39.8013 21.8678 45.726 30.2809C51.6508 38.6941 63.357 40.2416 73.4384 38.1803C74.4739 37.9686 75.5184 37.7929 76.57 37.6538C83.8118 36.6963 91.1777 37.5067 98.038 40.0157C104.898 42.5248 111.049 46.6579 115.964 52.0616C120.879 57.4654 124.413 63.9791 126.262 71.0458C128.112 78.1125 128.223 85.5221 126.585 92.6409C124.948 99.7597 121.611 106.376 116.859 111.924C112.108 117.473 106.083 121.788 99.301 124.501C98.3161 124.895 97.3195 125.253 96.313 125.576C86.5145 128.718 77.0674 135.802 76.0241 146.039Z"/>
</mask>
<path d="M76.0241 146.039C74.9807 156.276 82.5154 165.639 92.7261 164.364C99.703 163.492 106.565 161.729 113.141 159.099C125.51 154.151 136.497 146.281 145.162 136.163C153.828 126.044 159.914 113.977 162.9 100.994C165.887 88.0115 165.685 74.4984 162.312 61.6105C158.938 48.7226 152.494 36.8432 143.53 26.9881C134.566 17.133 123.349 9.5953 110.837 5.0194C98.3259 0.443505 84.8923 -1.03444 71.6852 0.711914C64.6642 1.6403 57.8182 3.46523 51.3089 6.12352C41.7827 10.0139 39.8013 21.8678 45.726 30.2809C51.6508 38.6941 63.357 40.2416 73.4384 38.1803C74.4739 37.9686 75.5184 37.7929 76.57 37.6538C83.8118 36.6963 91.1777 37.5067 98.038 40.0157C104.898 42.5248 111.049 46.6579 115.964 52.0616C120.879 57.4654 124.413 63.9791 126.262 71.0458C128.112 78.1125 128.223 85.5221 126.585 92.6409C124.948 99.7597 121.611 106.376 116.859 111.924C112.108 117.473 106.083 121.788 99.301 124.501C98.3161 124.895 97.3195 125.253 96.313 125.576C86.5145 128.718 77.0674 135.802 76.0241 146.039Z" fill="#CCFBEF" stroke="#15B79E" stroke-width="3.66667" mask="url(#path-1-inside-1_2673_96484)"/>
<mask id="path-2-inside-2_2673_96484" fill="white">
<path d="M133 43.3991C141.137 37.0994 142.727 25.1868 134.766 18.6679C128.805 13.7875 122.167 9.74652 115.031 6.68472C102.159 1.16153 88.0933 -0.993455 74.1582 0.422813C60.2231 1.83908 46.8781 6.77997 35.3806 14.7799C29.0069 19.2147 23.3173 24.5086 18.4606 30.4884C11.9733 38.4758 15.9284 49.8248 25.1657 54.3587C34.403 58.8926 45.414 54.6278 53.2668 47.9781C54.3545 47.057 55.4877 46.1857 56.6634 45.3676C62.9678 40.9811 70.2851 38.2719 77.926 37.4953C85.5669 36.7187 93.2797 37.9004 100.338 40.9289C101.654 41.4936 102.939 42.1192 104.19 42.8026C113.22 47.7365 124.864 49.6988 133 43.3991Z"/>
</mask>
<path d="M133 43.3991C141.137 37.0994 142.727 25.1868 134.766 18.6679C128.805 13.7875 122.167 9.74652 115.031 6.68472C102.159 1.16153 88.0933 -0.993455 74.1582 0.422813C60.2231 1.83908 46.8781 6.77997 35.3806 14.7799C29.0069 19.2147 23.3173 24.5086 18.4606 30.4884C11.9733 38.4758 15.9284 49.8248 25.1657 54.3587C34.403 58.8926 45.414 54.6278 53.2668 47.9781C54.3545 47.057 55.4877 46.1857 56.6634 45.3676C62.9678 40.9811 70.2851 38.2719 77.926 37.4953C85.5669 36.7187 93.2797 37.9004 100.338 40.9289C101.654 41.4936 102.939 42.1192 104.19 42.8026C113.22 47.7365 124.864 49.6988 133 43.3991Z" fill="#EBE9FE" stroke="#9B8AFB" stroke-width="3.66667" mask="url(#path-2-inside-2_2673_96484)"/>
<mask id="path-3-inside-3_2673_96484" fill="white">
<path d="M47.8299 28.9528C42.2374 20.3152 30.4592 17.6626 23.2932 25.0473C19.802 28.6452 16.637 32.563 13.8429 36.7567C7.59268 46.1378 3.33126 56.7002 1.32162 67.7921C-0.688011 78.8841 -0.403219 90.2702 2.15842 101.248C4.72006 112.225 9.5042 122.562 16.2156 131.619C22.927 140.675 31.4232 148.261 41.18 153.907C50.9368 159.552 61.7471 163.139 72.9437 164.445C84.1404 165.75 95.4858 164.748 106.28 161.499C111.105 160.046 115.775 158.158 120.233 155.865C129.384 151.159 130.274 139.119 123.638 131.254C117.057 123.455 105.311 122.875 95.539 125.817C89.6204 127.598 83.3994 128.148 77.2601 127.432C71.1207 126.716 65.1932 124.75 59.8434 121.654C54.4935 118.558 49.8348 114.399 46.1548 109.433C42.4748 104.467 39.8516 98.7991 38.447 92.7798C37.0424 86.7606 36.8862 80.5173 37.9882 74.4354C39.0901 68.3534 41.4267 62.5618 44.8538 57.4179C50.5123 48.925 53.3764 37.5192 47.8299 28.9528Z"/>
</mask>
<path d="M47.8299 28.9528C42.2374 20.3152 30.4592 17.6626 23.2932 25.0473C19.802 28.6452 16.637 32.563 13.8429 36.7567C7.59268 46.1378 3.33126 56.7002 1.32162 67.7921C-0.688011 78.8841 -0.403219 90.2702 2.15842 101.248C4.72006 112.225 9.5042 122.562 16.2156 131.619C22.927 140.675 31.4232 148.261 41.18 153.907C50.9368 159.552 61.7471 163.139 72.9437 164.445C84.1404 165.75 95.4858 164.748 106.28 161.499C111.105 160.046 115.775 158.158 120.233 155.865C129.384 151.159 130.274 139.119 123.638 131.254C117.057 123.455 105.311 122.875 95.539 125.817C89.6204 127.598 83.3994 128.148 77.2601 127.432C71.1207 126.716 65.1932 124.75 59.8434 121.654C54.4935 118.558 49.8348 114.399 46.1548 109.433C42.4748 104.467 39.8516 98.7991 38.447 92.7798C37.0424 86.7606 36.8862 80.5173 37.9882 74.4354C39.0901 68.3534 41.4267 62.5618 44.8538 57.4179C50.5123 48.925 53.3764 37.5192 47.8299 28.9528Z" fill="#FFE4E8" stroke="#FD6F8E" stroke-width="3.66667" mask="url(#path-3-inside-3_2673_96484)"/>
</svg>
