<svg width="40" height="40" viewBox="0 0 40 40" fill="none" xmlns="http://www.w3.org/2000/svg">
<rect x="0.43712" y="0.43712" width="38.9668" height="38.9668" rx="7.53109" fill="white"/>
<rect x="0.43712" y="0.43712" width="38.9668" height="38.9668" rx="7.53109" stroke="#F2F4F7" stroke-width="0.874241"/>
<g filter="url(#filter0_i_5115_15039)">
<path d="M32.8991 15.4618C32.8991 12.3122 30.3458 9.75891 27.1962 9.75891C27.0288 9.75891 26.8932 9.89458 26.8932 10.0619V24.1758C26.8932 27.3254 29.4464 29.8786 32.596 29.8786C32.7634 29.8786 32.8991 29.743 32.8991 29.5756V15.4618Z" fill="url(#paint0_linear_5115_15039)"/>
<path d="M25.9923 19.6686C25.9923 18.0101 24.6478 16.6657 22.9893 16.6657C23.9844 16.6657 24.7911 15.859 24.7911 14.8639C24.7911 13.8688 23.9844 13.0622 22.9893 13.0622C21.9943 13.0622 21.1876 13.8688 21.1876 14.8639C21.1876 15.859 21.9943 16.6657 22.9893 16.6657C21.3309 16.6657 19.9864 18.0101 19.9864 19.6686V24.1758C19.9864 27.3254 22.5397 29.8786 25.6893 29.8786C25.8566 29.8786 25.9923 29.743 25.9923 29.5756V19.6686Z" fill="url(#paint1_linear_5115_15039)"/>
<path d="M14.5811 17.16C14.5811 17.9605 15.1359 18.6315 15.882 18.8093C14.4619 19.0477 13.3799 20.2829 13.3799 21.7707V24.3232C13.3799 27.3914 15.8672 29.8786 18.9354 29.8786H19.0828C19.2501 29.8786 19.3858 29.743 19.3858 29.5756V21.7707C19.3858 20.2353 18.2335 18.969 16.7464 18.7895C17.4543 18.5858 17.9721 17.9334 17.9721 17.16C17.9721 16.2236 17.213 15.4645 16.2766 15.4645C15.3402 15.4645 14.5811 16.2236 14.5811 17.16Z" fill="url(#paint2_linear_5115_15039)"/>
<path d="M9.27555 21.512C8.52944 21.3342 7.97462 20.6632 7.97462 19.8626C7.97462 18.9263 8.73371 18.1672 9.6701 18.1672C10.6065 18.1672 11.3656 18.9263 11.3656 19.8626C11.3656 20.636 10.8478 21.2885 10.1399 21.4922C11.627 21.6716 12.7793 22.9379 12.7793 24.4733V29.5756C12.7793 29.743 12.6437 29.8786 12.4763 29.8786H10.9776C8.65569 29.8786 6.77344 27.9964 6.77344 25.6745V24.4733C6.77344 22.9855 7.85547 21.7504 9.27555 21.512Z" fill="url(#paint3_linear_5115_15039)"/>
</g>
<defs>
<filter id="filter0_i_5115_15039" x="6.77344" y="9.75891" width="26.125" height="20.9166" filterUnits="userSpaceOnUse" color-interpolation-filters="sRGB">
<feFlood flood-opacity="0" result="BackgroundImageFix"/>
<feBlend mode="normal" in="SourceGraphic" in2="BackgroundImageFix" result="shape"/>
<feColorMatrix in="SourceAlpha" type="matrix" values="0 0 0 0 0 0 0 0 0 0 0 0 0 0 0 0 0 0 127 0" result="hardAlpha"/>
<feOffset dy="0.796821"/>
<feGaussianBlur stdDeviation="0.398411"/>
<feComposite in2="hardAlpha" operator="arithmetic" k2="-1" k3="1"/>
<feColorMatrix type="matrix" values="0 0 0 0 0 0 0 0 0 0 0 0 0 0 0 0 0 0 0.1 0"/>
<feBlend mode="normal" in2="shape" result="effect1_innerShadow_5115_15039"/>
</filter>
<linearGradient id="paint0_linear_5115_15039" x1="32.8693" y1="9.75891" x2="10.9568" y2="30.6755" gradientUnits="userSpaceOnUse">
<stop offset="0.03125" stop-color="#7A5AF8"/>
<stop offset="1" stop-color="#4830E0" stop-opacity="0.87"/>
</linearGradient>
<linearGradient id="paint1_linear_5115_15039" x1="32.8693" y1="9.75891" x2="10.9568" y2="30.6755" gradientUnits="userSpaceOnUse">
<stop offset="0.03125" stop-color="#7A5AF8"/>
<stop offset="1" stop-color="#4830E0" stop-opacity="0.87"/>
</linearGradient>
<linearGradient id="paint2_linear_5115_15039" x1="32.8693" y1="9.75891" x2="10.9568" y2="30.6755" gradientUnits="userSpaceOnUse">
<stop offset="0.03125" stop-color="#7A5AF8"/>
<stop offset="1" stop-color="#4830E0" stop-opacity="0.87"/>
</linearGradient>
<linearGradient id="paint3_linear_5115_15039" x1="32.8693" y1="9.75891" x2="10.9568" y2="30.6755" gradientUnits="userSpaceOnUse">
<stop offset="0.03125" stop-color="#7A5AF8"/>
<stop offset="1" stop-color="#4830E0" stop-opacity="0.87"/>
</linearGradient>
</defs>
</svg>
