<svg width="40" height="41" viewBox="0 0 40 41" fill="none" xmlns="http://www.w3.org/2000/svg">
<rect x="0.43712" y="1.27818" width="38.9668" height="38.9668" rx="7.53109" fill="white"/>
<rect x="0.43712" y="1.27818" width="38.9668" height="38.9668" rx="7.53109" stroke="#F2F4F7" stroke-width="0.874241"/>
<g filter="url(#filter0_i_5115_6254)">
<path d="M32.8991 16.3028C32.8991 13.1532 30.3458 10.6 27.1962 10.6C27.0288 10.6 26.8932 10.7356 26.8932 10.903V25.0168C26.8932 28.1664 29.4464 30.7197 32.596 30.7197C32.7634 30.7197 32.8991 30.584 32.8991 30.4167V16.3028Z" fill="url(#paint0_linear_5115_6254)"/>
<path d="M25.9923 20.5097C25.9923 18.8512 24.6478 17.5067 22.9893 17.5067C23.9844 17.5067 24.7911 16.7001 24.7911 15.705C24.7911 14.7099 23.9844 13.9032 22.9893 13.9032C21.9943 13.9032 21.1876 14.7099 21.1876 15.705C21.1876 16.7001 21.9943 17.5067 22.9893 17.5067C21.3309 17.5067 19.9864 18.8512 19.9864 20.5097V25.0168C19.9864 28.1664 22.5397 30.7197 25.6893 30.7197C25.8566 30.7197 25.9923 30.584 25.9923 30.4167V20.5097Z" fill="url(#paint1_linear_5115_6254)"/>
<path d="M14.5811 18.0011C14.5811 18.8016 15.1359 19.4726 15.882 19.6504C14.4619 19.8888 13.3799 21.1239 13.3799 22.6118V25.1643C13.3799 28.2324 15.8672 30.7197 18.9354 30.7197H19.0828C19.2501 30.7197 19.3858 30.584 19.3858 30.4167V22.6118C19.3858 21.0763 18.2335 19.81 16.7464 19.6306C17.4543 19.4269 17.9721 18.7744 17.9721 18.0011C17.9721 17.0647 17.213 16.3056 16.2766 16.3056C15.3402 16.3056 14.5811 17.0647 14.5811 18.0011Z" fill="url(#paint2_linear_5115_6254)"/>
<path d="M9.27555 22.353C8.52944 22.1752 7.97462 21.5043 7.97462 20.7037C7.97462 19.7673 8.73371 19.0082 9.6701 19.0082C10.6065 19.0082 11.3656 19.7673 11.3656 20.7037C11.3656 21.4771 10.8478 22.1295 10.1399 22.3332C11.627 22.5127 12.7793 23.779 12.7793 25.3144V30.4167C12.7793 30.584 12.6437 30.7197 12.4763 30.7197H10.9776C8.65569 30.7197 6.77344 28.8375 6.77344 26.5156V25.3144C6.77344 23.8266 7.85547 22.5915 9.27555 22.353Z" fill="url(#paint3_linear_5115_6254)"/>
</g>
<defs>
<filter id="filter0_i_5115_6254" x="6.77344" y="10.6" width="26.125" height="20.9166" filterUnits="userSpaceOnUse" color-interpolation-filters="sRGB">
<feFlood flood-opacity="0" result="BackgroundImageFix"/>
<feBlend mode="normal" in="SourceGraphic" in2="BackgroundImageFix" result="shape"/>
<feColorMatrix in="SourceAlpha" type="matrix" values="0 0 0 0 0 0 0 0 0 0 0 0 0 0 0 0 0 0 127 0" result="hardAlpha"/>
<feOffset dy="0.796821"/>
<feGaussianBlur stdDeviation="0.398411"/>
<feComposite in2="hardAlpha" operator="arithmetic" k2="-1" k3="1"/>
<feColorMatrix type="matrix" values="0 0 0 0 0 0 0 0 0 0 0 0 0 0 0 0 0 0 0.1 0"/>
<feBlend mode="normal" in2="shape" result="effect1_innerShadow_5115_6254"/>
</filter>
<linearGradient id="paint0_linear_5115_6254" x1="32.8693" y1="10.6" x2="10.9568" y2="31.5165" gradientUnits="userSpaceOnUse">
<stop offset="0.03125" stop-color="#7A5AF8"/>
<stop offset="1" stop-color="#4830E0" stop-opacity="0.87"/>
</linearGradient>
<linearGradient id="paint1_linear_5115_6254" x1="32.8693" y1="10.6" x2="10.9568" y2="31.5165" gradientUnits="userSpaceOnUse">
<stop offset="0.03125" stop-color="#7A5AF8"/>
<stop offset="1" stop-color="#4830E0" stop-opacity="0.87"/>
</linearGradient>
<linearGradient id="paint2_linear_5115_6254" x1="32.8693" y1="10.6" x2="10.9568" y2="31.5165" gradientUnits="userSpaceOnUse">
<stop offset="0.03125" stop-color="#7A5AF8"/>
<stop offset="1" stop-color="#4830E0" stop-opacity="0.87"/>
</linearGradient>
<linearGradient id="paint3_linear_5115_6254" x1="32.8693" y1="10.6" x2="10.9568" y2="31.5165" gradientUnits="userSpaceOnUse">
<stop offset="0.03125" stop-color="#7A5AF8"/>
<stop offset="1" stop-color="#4830E0" stop-opacity="0.87"/>
</linearGradient>
</defs>
</svg>
