<svg width="11" height="11" viewBox="0 0 11 11" fill="none" xmlns="http://www.w3.org/2000/svg">
<g clip-path="url(#clip0_5132_15040)">
<path d="M3.38035 4.19112L5.04699 4.1814M3.38886 5.64943L6.30548 5.63241M5.07496 8.97298C7.14599 8.96089 8.81509 7.27219 8.80301 5.20116C8.79092 3.13013 7.10222 1.46102 5.03119 1.47311C2.96015 1.4852 1.29105 3.1739 1.30314 5.24493C1.30605 5.74373 1.40621 6.21922 1.58555 6.65352C1.61988 6.73664 1.63704 6.7782 1.64478 6.81183C1.65236 6.84473 1.6552 6.86909 1.6554 6.90285C1.65561 6.93736 1.64956 6.97499 1.63747 7.05024L1.39905 8.53411C1.37409 8.6895 1.3616 8.76719 1.386 8.82318C1.40736 8.87218 1.44673 8.9111 1.49598 8.93189C1.55225 8.95563 1.62979 8.94224 1.78488 8.91546L3.26587 8.65974C3.34098 8.64677 3.37853 8.64029 3.41304 8.64009C3.4468 8.6399 3.47119 8.64245 3.50418 8.64965C3.5379 8.657 3.57965 8.67367 3.66317 8.70702C4.09953 8.88128 4.57616 8.97589 5.07496 8.97298Z" stroke="#667085" stroke-width="0.7" stroke-linecap="round" stroke-linejoin="round"/>
</g>
<defs>
<clipPath id="clip0_5132_15040">
<rect width="10" height="10" fill="white" transform="translate(0.0234375 0.252319) rotate(-0.334384)"/>
</clipPath>
</defs>
</svg>
