<svg width="15" height="15" viewBox="0 0 15 15" fill="none" xmlns="http://www.w3.org/2000/svg">
<path d="M5.13815 5.83359H7.57991M5.13815 7.97014H9.41124M7.57991 12.8537C10.6142 12.8537 13.0739 10.3939 13.0739 7.3597C13.0739 4.32546 10.6142 1.86572 7.57991 1.86572C4.54567 1.86572 2.08594 4.32546 2.08594 7.3597C2.08594 8.09048 2.22862 8.78795 2.48765 9.42574C2.53722 9.54781 2.56201 9.60885 2.57307 9.65818C2.58388 9.70644 2.58784 9.74216 2.58785 9.79162C2.58785 9.84218 2.57867 9.89725 2.56032 10.0074L2.19834 12.1793C2.16043 12.4067 2.14148 12.5204 2.17675 12.6027C2.20762 12.6746 2.26497 12.732 2.33694 12.7629C2.41917 12.7981 2.53289 12.7792 2.76033 12.7413L4.93221 12.3793C5.04236 12.3609 5.09743 12.3518 5.14799 12.3518C5.19745 12.3518 5.23317 12.3557 5.28143 12.3665C5.33077 12.3776 5.3918 12.4024 5.51387 12.452C6.15167 12.711 6.84913 12.8537 7.57991 12.8537Z" stroke="#475467" stroke-width="1.2" stroke-linecap="round" stroke-linejoin="round"/>
</svg>
