<svg width="15" height="16" viewBox="0 0 15 16" fill="none" xmlns="http://www.w3.org/2000/svg">
<path d="M5.13815 6.1934H7.57991M5.13815 8.32994H9.41124M7.57991 13.2135C10.6142 13.2135 13.0739 10.7537 13.0739 7.7195C13.0739 4.68526 10.6142 2.22552 7.57991 2.22552C4.54567 2.22552 2.08594 4.68526 2.08594 7.7195C2.08594 8.45029 2.22862 9.14775 2.48765 9.78555C2.53722 9.90761 2.56201 9.96865 2.57307 10.018C2.58388 10.0662 2.58784 10.102 2.58785 10.1514C2.58785 10.202 2.57867 10.2571 2.56032 10.3672L2.19834 12.5391C2.16043 12.7665 2.14148 12.8802 2.17675 12.9625C2.20762 13.0344 2.26497 13.0918 2.33694 13.1227C2.41917 13.1579 2.53289 13.139 2.76033 13.1011L4.93221 12.7391C5.04236 12.7207 5.09743 12.7116 5.14799 12.7116C5.19745 12.7116 5.23317 12.7155 5.28143 12.7263C5.33077 12.7374 5.3918 12.7622 5.51387 12.8118C6.15167 13.0708 6.84913 13.2135 7.57991 13.2135Z" stroke="#475467" stroke-width="1.15663" stroke-linecap="round" stroke-linejoin="round"/>
</svg>
