<svg width="16" height="16" viewBox="0 0 16 16" fill="none" xmlns="http://www.w3.org/2000/svg">
<path d="M5.08594 6.8808L7.58594 6.8808M5.08594 9.0683L9.46094 9.0683M7.58594 14.0683C10.6925 14.0683 13.2109 11.5499 13.2109 8.4433C13.2109 5.3367 10.6925 2.8183 7.58594 2.8183C4.47934 2.8183 1.96094 5.3367 1.96094 8.4433C1.96094 9.19151 2.10702 9.90561 2.37223 10.5586C2.42298 10.6836 2.44836 10.7461 2.45968 10.7966C2.47076 10.846 2.47481 10.8826 2.47482 10.9332C2.47482 10.985 2.46543 11.0414 2.44663 11.1541L2.07602 13.3778C2.03721 13.6107 2.0178 13.7271 2.05391 13.8113C2.08552 13.885 2.14424 13.9437 2.21793 13.9753C2.30212 14.0114 2.41855 13.992 2.65141 13.9532L4.87509 13.5826C4.98787 13.5638 5.04425 13.5544 5.09602 13.5544C5.14666 13.5544 5.18323 13.5585 5.23264 13.5696C5.28315 13.5809 5.34564 13.6063 5.47062 13.657C6.12363 13.9222 6.83772 14.0683 7.58594 14.0683Z" stroke="#667085" stroke-width="1.2" stroke-linecap="round" stroke-linejoin="round"/>
</svg>
