<svg width="16" height="16" viewBox="0 0 16 16" fill="none" xmlns="http://www.w3.org/2000/svg">
<path d="M5.08594 6.52112L7.58594 6.52112M5.08594 8.70862L9.46094 8.70862M7.58594 13.7086C10.6925 13.7086 13.2109 11.1902 13.2109 8.08362C13.2109 4.97702 10.6925 2.45862 7.58594 2.45862C4.47934 2.45862 1.96094 4.97702 1.96094 8.08362C1.96094 8.83183 2.10702 9.54593 2.37223 10.1989C2.42298 10.3239 2.44836 10.3864 2.45968 10.4369C2.47076 10.4863 2.47481 10.5229 2.47482 10.5735C2.47482 10.6253 2.46543 10.6817 2.44663 10.7945L2.07602 13.0181C2.03721 13.251 2.0178 13.3674 2.05391 13.4516C2.08552 13.5253 2.14424 13.584 2.21793 13.6156C2.30212 13.6518 2.41855 13.6323 2.65141 13.5935L4.87509 13.2229C4.98787 13.2041 5.04425 13.1947 5.09602 13.1947C5.14666 13.1947 5.18323 13.1988 5.23264 13.2099C5.28315 13.2212 5.34564 13.2466 5.47062 13.2973C6.12363 13.5625 6.83772 13.7086 7.58594 13.7086Z" stroke="#667085" stroke-width="1.2" stroke-linecap="round" stroke-linejoin="round"/>
</svg>
