<svg width="16" height="16" viewBox="0 0 16 16" fill="none" xmlns="http://www.w3.org/2000/svg">
<path d="M5.08594 6.20355L7.58594 6.20355M5.08594 8.39105L9.46094 8.39105M7.58594 13.3911C10.6925 13.3911 13.2109 10.8727 13.2109 7.76605C13.2109 4.65945 10.6925 2.14105 7.58594 2.14105C4.47934 2.14105 1.96094 4.65945 1.96094 7.76605C1.96094 8.51427 2.10702 9.22836 2.37223 9.88137C2.42298 10.0063 2.44836 10.0688 2.45968 10.1194C2.47076 10.1688 2.47481 10.2053 2.47482 10.256C2.47482 10.3077 2.46543 10.3641 2.44663 10.4769L2.07602 12.7006C2.03721 12.9334 2.0178 13.0499 2.05391 13.1341C2.08552 13.2078 2.14424 13.2665 2.21793 13.2981C2.30212 13.3342 2.41855 13.3148 2.65141 13.276L4.87509 12.9054C4.98787 12.8866 5.04425 12.8772 5.09602 12.8772C5.14666 12.8772 5.18323 12.8812 5.23264 12.8923C5.28315 12.9036 5.34564 12.929 5.47062 12.9798C6.12363 13.245 6.83772 13.3911 7.58594 13.3911Z" stroke="#667085" stroke-width="1.2" stroke-linecap="round" stroke-linejoin="round"/>
</svg>
