<svg width="28" height="29" viewBox="0 0 28 29" fill="none" xmlns="http://www.w3.org/2000/svg">
<path d="M0.388889 6.68213C0.388889 3.5832 2.90107 1.07102 6 1.07102H22C25.0989 1.07102 27.6111 3.5832 27.6111 6.68213V22.6821C27.6111 25.7811 25.0989 28.2932 22 28.2932H6C2.90107 28.2932 0.388889 25.7811 0.388889 22.6821V6.68213Z" fill="white"/>
<path d="M0.388889 6.68213C0.388889 3.5832 2.90107 1.07102 6 1.07102H22C25.0989 1.07102 27.6111 3.5832 27.6111 6.68213V22.6821C27.6111 25.7811 25.0989 28.2932 22 28.2932H6C2.90107 28.2932 0.388889 25.7811 0.388889 22.6821V6.68213Z" stroke="#EAECF0" stroke-width="0.777778"/>
<path d="M21.7782 11.5703V14.6814M12.6393 9.62581H9.95599C8.6492 9.62581 7.9958 9.62581 7.49668 9.88013C7.05763 10.1038 6.70068 10.4608 6.47697 10.8998C6.22266 11.399 6.22266 12.0524 6.22266 13.3591L6.22266 14.2925C6.22266 15.0173 6.22266 15.3797 6.34107 15.6655C6.49895 16.0467 6.80177 16.3495 7.18293 16.5074C7.46879 16.6258 7.83119 16.6258 8.55599 16.6258V19.9314C8.55599 20.1119 8.55599 20.2022 8.56348 20.2783C8.63622 21.0168 9.22053 21.6011 9.95908 21.6739C10.0351 21.6814 10.1254 21.6814 10.306 21.6814C10.4866 21.6814 10.5769 21.6814 10.6529 21.6739C11.3915 21.6011 11.9758 21.0168 12.0485 20.2783C12.056 20.2022 12.056 20.1119 12.056 19.9314V16.6258H12.6393C14.0132 16.6258 15.6939 17.3623 16.9904 18.0691C17.7469 18.4814 18.1251 18.6876 18.3728 18.6573C18.6025 18.6291 18.7762 18.526 18.9108 18.3378C19.056 18.1348 19.056 17.7287 19.056 16.9165V9.33515C19.056 8.52292 19.056 8.11681 18.9108 7.91384C18.7762 7.72563 18.6025 7.62249 18.3728 7.59436C18.1251 7.56402 17.7469 7.77019 16.9904 8.18253C15.6938 8.88934 14.0132 9.62581 12.6393 9.62581Z" stroke="#344054" stroke-width="1.5" stroke-linecap="round" stroke-linejoin="round"/>
</svg>
