<svg width="28" height="29" viewBox="0 0 28 29" fill="none" xmlns="http://www.w3.org/2000/svg">
<path d="M0.388889 6.84106C0.388889 3.74213 2.90107 1.22995 6 1.22995H22C25.0989 1.22995 27.6111 3.74213 27.6111 6.84106V22.8411C27.6111 25.94 25.0989 28.4522 22 28.4522H6C2.90107 28.4522 0.388889 25.94 0.388889 22.8411V6.84106Z" fill="white"/>
<path d="M0.388889 6.84106C0.388889 3.74213 2.90107 1.22995 6 1.22995H22C25.0989 1.22995 27.6111 3.74213 27.6111 6.84106V22.8411C27.6111 25.94 25.0989 28.4522 22 28.4522H6C2.90107 28.4522 0.388889 25.94 0.388889 22.8411V6.84106Z" stroke="#EAECF0" stroke-width="0.777778"/>
<path d="M11.9423 21.8404C12.4907 22.3245 13.2111 22.6182 14.0002 22.6182C14.7892 22.6182 15.5096 22.3245 16.058 21.8404M18.6668 11.7293C18.6668 10.4916 18.1752 9.30463 17.3 8.42946C16.4248 7.55429 15.2378 7.06262 14.0002 7.06262C12.7625 7.06262 11.5755 7.55429 10.7003 8.42946C9.82515 9.30463 9.33348 10.4916 9.33348 11.7293C9.33348 14.1328 8.72718 15.7784 8.04989 16.8668C7.47858 17.785 7.19293 18.244 7.2034 18.3721C7.215 18.5139 7.24504 18.568 7.35931 18.6527C7.46251 18.7293 7.92772 18.7293 8.85815 18.7293H19.1422C20.0726 18.7293 20.5378 18.7293 20.641 18.6527C20.7553 18.568 20.7853 18.5139 20.7969 18.3721C20.8074 18.244 20.5217 17.785 19.9504 16.8668C19.2731 15.7784 18.6668 14.1328 18.6668 11.7293Z" stroke="#344054" stroke-width="1.5" stroke-linecap="round" stroke-linejoin="round"/>
</svg>
