<svg width="28" height="29" viewBox="0 0 28 29" fill="none" xmlns="http://www.w3.org/2000/svg">
<path d="M0.388889 6.68213C0.388889 3.5832 2.90107 1.07102 6 1.07102H22C25.0989 1.07102 27.6111 3.5832 27.6111 6.68213V22.6821C27.6111 25.7811 25.0989 28.2932 22 28.2932H6C2.90107 28.2932 0.388889 25.7811 0.388889 22.6821V6.68213Z" fill="white"/>
<path d="M0.388889 6.68213C0.388889 3.5832 2.90107 1.07102 6 1.07102H22C25.0989 1.07102 27.6111 3.5832 27.6111 6.68213V22.6821C27.6111 25.7811 25.0989 28.2932 22 28.2932H6C2.90107 28.2932 0.388889 25.7811 0.388889 22.6821V6.68213Z" stroke="#EAECF0" stroke-width="0.777778"/>
<path d="M17.1115 19.3482L19.4449 21.6815M19.4449 21.6815L21.7782 19.3482M19.4449 21.6815V17.0149M16.7227 7.90766C17.8628 8.36919 18.6671 9.48698 18.6671 10.7926C18.6671 12.0983 17.8628 13.2161 16.7227 13.6776M14.0004 17.0149H10.8893C9.43973 17.0149 8.71493 17.0149 8.1432 17.2517C7.38089 17.5674 6.77523 18.1731 6.45948 18.9354C6.22266 19.5071 6.22266 20.2319 6.22266 21.6815M15.1671 10.7926C15.1671 12.5108 13.7742 13.9037 12.056 13.9037C10.3378 13.9037 8.94488 12.5108 8.94488 10.7926C8.94488 9.07441 10.3378 7.68152 12.056 7.68152C13.7742 7.68152 15.1671 9.07441 15.1671 10.7926Z" stroke="#344054" stroke-width="1.5" stroke-linecap="round" stroke-linejoin="round"/>
</svg>
