<svg width="28" height="29" viewBox="0 0 28 29" fill="none" xmlns="http://www.w3.org/2000/svg">
<path d="M0.388889 6.84106C0.388889 3.74213 2.90107 1.22995 6 1.22995H22C25.0989 1.22995 27.6111 3.74213 27.6111 6.84106V22.8411C27.6111 25.94 25.0989 28.4522 22 28.4522H6C2.90107 28.4522 0.388889 25.94 0.388889 22.8411V6.84106Z" fill="white"/>
<path d="M0.388889 6.84106C0.388889 3.74213 2.90107 1.22995 6 1.22995H22C25.0989 1.22995 27.6111 3.74213 27.6111 6.84106V22.8411C27.6111 25.94 25.0989 28.4522 22 28.4522H6C2.90107 28.4522 0.388889 25.94 0.388889 22.8411V6.84106Z" stroke="#EAECF0" stroke-width="0.777778"/>
<path d="M21.1641 17.8658C20.6693 19.036 19.8954 20.0671 18.91 20.8691C17.9246 21.671 16.7578 22.2194 15.5115 22.4662C14.2653 22.713 12.9775 22.6508 11.7609 22.285C10.5442 21.9192 9.43568 21.2609 8.53221 20.3677C7.62874 19.4745 6.95783 18.3735 6.57813 17.1611C6.19844 15.9487 6.12152 14.6618 6.3541 13.4128C6.58669 12.1638 7.12169 10.9908 7.91234 9.9963C8.70299 9.00184 9.72521 8.21619 10.8896 7.70806M21.1865 11.8639C21.4978 12.6155 21.6888 13.4102 21.7536 14.2187C21.7697 14.4184 21.7777 14.5183 21.738 14.6083C21.7049 14.6834 21.6392 14.7545 21.567 14.7936C21.4805 14.8403 21.3724 14.8403 21.1563 14.8403H14.623C14.4052 14.8403 14.2963 14.8403 14.2131 14.7979C14.1399 14.7606 14.0804 14.7011 14.0431 14.6279C14.0007 14.5448 14.0007 14.4359 14.0007 14.2181V7.68472C14.0007 7.4686 14.0007 7.36054 14.0475 7.27404C14.0865 7.20178 14.1576 7.13615 14.2328 7.10302C14.3227 7.06336 14.4226 7.07136 14.6223 7.08738C15.4308 7.15219 16.2255 7.34319 16.9772 7.65455C17.9208 8.04542 18.7782 8.61832 19.5005 9.34056C20.2227 10.0628 20.7956 10.9202 21.1865 11.8639Z" stroke="#344054" stroke-width="1.5" stroke-linecap="round" stroke-linejoin="round"/>
</svg>
