<svg width="28" height="29" viewBox="0 0 28 29" fill="none" xmlns="http://www.w3.org/2000/svg">
<path d="M0.388889 6.84106C0.388889 3.74213 2.90107 1.22995 6 1.22995H22C25.0989 1.22995 27.6111 3.74213 27.6111 6.84106V22.8411C27.6111 25.94 25.0989 28.4522 22 28.4522H6C2.90107 28.4522 0.388889 25.94 0.388889 22.8411V6.84106Z" fill="white"/>
<path d="M0.388889 6.84106C0.388889 3.74213 2.90107 1.22995 6 1.22995H22C25.0989 1.22995 27.6111 3.74213 27.6111 6.84106V22.8411C27.6111 25.94 25.0989 28.4522 22 28.4522H6C2.90107 28.4522 0.388889 25.94 0.388889 22.8411V6.84106Z" stroke="#EAECF0" stroke-width="0.777778"/>
<path d="M21.7782 11.7292V14.8403M12.6393 9.78475H9.95599C8.6492 9.78475 7.9958 9.78475 7.49668 10.0391C7.05763 10.2628 6.70068 10.6197 6.47697 11.0588C6.22266 11.5579 6.22266 12.2113 6.22266 13.5181L6.22266 14.4514C6.22266 15.1762 6.22266 15.5386 6.34107 15.8245C6.49895 16.2056 6.80177 16.5085 7.18293 16.6663C7.46879 16.7847 7.83119 16.7847 8.55599 16.7847V20.0903C8.55599 20.2709 8.55599 20.3612 8.56348 20.4372C8.63622 21.1758 9.22053 21.7601 9.95908 21.8328C10.0351 21.8403 10.1254 21.8403 10.306 21.8403C10.4866 21.8403 10.5769 21.8403 10.6529 21.8328C11.3915 21.7601 11.9758 21.1758 12.0485 20.4372C12.056 20.3612 12.056 20.2709 12.056 20.0903V16.7847H12.6393C14.0132 16.7847 15.6939 17.5212 16.9904 18.228C17.7469 18.6404 18.1251 18.8465 18.3728 18.8162C18.6025 18.7881 18.7762 18.6849 18.9108 18.4967C19.056 18.2938 19.056 17.8876 19.056 17.0754V9.49408C19.056 8.68186 19.056 8.27574 18.9108 8.07277C18.7762 7.88456 18.6025 7.78143 18.3728 7.75329C18.1251 7.72295 17.7469 7.92913 16.9904 8.34147C15.6938 9.04828 14.0132 9.78475 12.6393 9.78475Z" stroke="#344054" stroke-width="1.5" stroke-linecap="round" stroke-linejoin="round"/>
</svg>
