<svg width="28" height="29" viewBox="0 0 28 29" fill="none" xmlns="http://www.w3.org/2000/svg">
<path d="M0.388889 6.68213C0.388889 3.5832 2.90107 1.07102 6 1.07102H22C25.0989 1.07102 27.6111 3.5832 27.6111 6.68213V22.6821C27.6111 25.7811 25.0989 28.2932 22 28.2932H6C2.90107 28.2932 0.388889 25.7811 0.388889 22.6821V6.68213Z" fill="white"/>
<path d="M0.388889 6.68213C0.388889 3.5832 2.90107 1.07102 6 1.07102H22C25.0989 1.07102 27.6111 3.5832 27.6111 6.68213V22.6821C27.6111 25.7811 25.0989 28.2932 22 28.2932H6C2.90107 28.2932 0.388889 25.7811 0.388889 22.6821V6.68213Z" stroke="#EAECF0" stroke-width="0.777778"/>
<path d="M21.1641 17.707C20.6693 18.8772 19.8954 19.9083 18.91 20.7103C17.9246 21.5122 16.7578 22.0606 15.5115 22.3074C14.2653 22.5542 12.9775 22.492 11.7609 22.1262C10.5442 21.7604 9.43568 21.1021 8.53221 20.2089C7.62874 19.3156 6.95783 18.2147 6.57813 17.0023C6.19844 15.7899 6.12152 14.503 6.3541 13.254C6.58669 12.005 7.12169 10.832 7.91234 9.83749C8.70299 8.84302 9.72521 8.05738 10.8896 7.54924M21.1865 11.705C21.4978 12.4567 21.6888 13.2514 21.7536 14.0599C21.7697 14.2596 21.7777 14.3595 21.738 14.4495C21.7049 14.5246 21.6392 14.5957 21.567 14.6347C21.4805 14.6815 21.3724 14.6815 21.1563 14.6815H14.623C14.4052 14.6815 14.2963 14.6815 14.2131 14.6391C14.1399 14.6018 14.0804 14.5423 14.0431 14.4691C14.0007 14.3859 14.0007 14.277 14.0007 14.0592V7.52591C14.0007 7.30979 14.0007 7.20173 14.0475 7.11523C14.0865 7.04297 14.1576 6.97733 14.2328 6.9442C14.3227 6.90454 14.4226 6.91255 14.6223 6.92856C15.4308 6.99338 16.2255 7.18437 16.9772 7.49573C17.9208 7.8866 18.7782 8.45951 19.5005 9.18174C20.2227 9.90398 20.7956 10.7614 21.1865 11.705Z" stroke="#344054" stroke-width="1.5" stroke-linecap="round" stroke-linejoin="round"/>
</svg>
