<svg width="28" height="29" viewBox="0 0 28 29" fill="none" xmlns="http://www.w3.org/2000/svg">
<path d="M0.388889 6.84106C0.388889 3.74213 2.90107 1.22995 6 1.22995H22C25.0989 1.22995 27.6111 3.74213 27.6111 6.84106V22.8411C27.6111 25.94 25.0989 28.4522 22 28.4522H6C2.90107 28.4522 0.388889 25.94 0.388889 22.8411V6.84106Z" fill="white"/>
<path d="M0.388889 6.84106C0.388889 3.74213 2.90107 1.22995 6 1.22995H22C25.0989 1.22995 27.6111 3.74213 27.6111 6.84106V22.8411C27.6111 25.94 25.0989 28.4522 22 28.4522H6C2.90107 28.4522 0.388889 25.94 0.388889 22.8411V6.84106Z" stroke="#EAECF0" stroke-width="0.777778"/>
<path d="M17.1115 19.5071L19.4449 21.8405M19.4449 21.8405L21.7782 19.5071M19.4449 21.8405V17.1738M16.7227 8.0666C17.8628 8.52812 18.6671 9.64592 18.6671 10.9516C18.6671 12.2572 17.8628 13.375 16.7227 13.8365M14.0004 17.1738H10.8893C9.43973 17.1738 8.71493 17.1738 8.1432 17.4106C7.38089 17.7264 6.77523 18.332 6.45948 19.0943C6.22266 19.6661 6.22266 20.3909 6.22266 21.8405M15.1671 10.9516C15.1671 12.6698 13.7742 14.0627 12.056 14.0627C10.3378 14.0627 8.94488 12.6698 8.94488 10.9516C8.94488 9.23335 10.3378 7.84045 12.056 7.84045C13.7742 7.84045 15.1671 9.23335 15.1671 10.9516Z" stroke="#344054" stroke-width="1.5" stroke-linecap="round" stroke-linejoin="round"/>
</svg>
