<svg width="28" height="29" viewBox="0 0 28 29" fill="none" xmlns="http://www.w3.org/2000/svg">
<path d="M0.388889 6.68213C0.388889 3.5832 2.90107 1.07102 6 1.07102H22C25.0989 1.07102 27.6111 3.5832 27.6111 6.68213V22.6821C27.6111 25.7811 25.0989 28.2932 22 28.2932H6C2.90107 28.2932 0.388889 25.7811 0.388889 22.6821V6.68213Z" fill="white"/>
<path d="M0.388889 6.68213C0.388889 3.5832 2.90107 1.07102 6 1.07102H22C25.0989 1.07102 27.6111 3.5832 27.6111 6.68213V22.6821C27.6111 25.7811 25.0989 28.2932 22 28.2932H6C2.90107 28.2932 0.388889 25.7811 0.388889 22.6821V6.68213Z" stroke="#EAECF0" stroke-width="0.777778"/>
<path d="M11.9442 21.6815C12.4927 22.1655 13.2131 22.4592 14.0021 22.4592C14.7911 22.4592 15.5115 22.1655 16.06 21.6815M18.6688 11.5704C18.6688 10.3327 18.1771 9.14569 17.3019 8.27052C16.4268 7.39535 15.2398 6.90369 14.0021 6.90369C12.7644 6.90369 11.5774 7.39535 10.7023 8.27052C9.8271 9.14569 9.33544 10.3327 9.33544 11.5704C9.33544 13.9738 8.72914 15.6194 8.05184 16.7079C7.48054 17.626 7.19488 18.0851 7.20536 18.2132C7.21695 18.355 7.24699 18.409 7.36126 18.4938C7.46446 18.5704 7.92967 18.5704 8.8601 18.5704H19.1441C20.0745 18.5704 20.5397 18.5704 20.6429 18.4938C20.7572 18.409 20.7873 18.355 20.7989 18.2132C20.8093 18.0851 20.5237 17.626 19.9524 16.7079C19.2751 15.6194 18.6688 13.9738 18.6688 11.5704Z" stroke="#344054" stroke-width="1.5" stroke-linecap="round" stroke-linejoin="round"/>
</svg>
