<svg width="28" height="29" viewBox="0 0 28 29" fill="none" xmlns="http://www.w3.org/2000/svg">
<path d="M0.388889 6.84106C0.388889 3.74213 2.90107 1.22995 6 1.22995H22C25.0989 1.22995 27.6111 3.74213 27.6111 6.84106V22.8411C27.6111 25.94 25.0989 28.4522 22 28.4522H6C2.90107 28.4522 0.388889 25.94 0.388889 22.8411V6.84106Z" fill="white"/>
<path d="M0.388889 6.84106C0.388889 3.74213 2.90107 1.22995 6 1.22995H22C25.0989 1.22995 27.6111 3.74213 27.6111 6.84106V22.8411C27.6111 25.94 25.0989 28.4522 22 28.4522H6C2.90107 28.4522 0.388889 25.94 0.388889 22.8411V6.84106Z" stroke="#EAECF0" stroke-width="0.777778"/>
<path d="M11.9741 20.5735L12.4287 21.5958C12.5638 21.9002 12.7844 22.1587 13.0635 22.3402C13.3427 22.5217 13.6686 22.6182 14.0015 22.6182C14.3345 22.6182 14.6604 22.5217 14.9395 22.3402C15.2187 22.1587 15.4393 21.9002 15.5744 21.5958L16.029 20.5735C16.1908 20.2107 16.463 19.9083 16.8067 19.7093C17.1527 19.5097 17.5529 19.4247 17.9501 19.4665L19.0623 19.5848C19.3934 19.6199 19.7275 19.5581 20.0242 19.407C20.3208 19.2559 20.5673 19.022 20.7336 18.7336C20.9002 18.4454 20.9796 18.1151 20.9621 17.7826C20.9446 17.4502 20.831 17.13 20.6351 16.8609L19.9766 15.9561C19.7421 15.6315 19.6168 15.2408 19.6188 14.8404C19.6188 14.4411 19.7452 14.052 19.9801 13.729L20.6386 12.8242C20.8345 12.5551 20.9481 12.2349 20.9656 11.9025C20.983 11.5701 20.9037 11.2397 20.7371 10.9515C20.5707 10.6631 20.3243 10.4292 20.0276 10.2781C19.7309 10.127 19.3968 10.0653 19.0657 10.1003L17.9535 10.2187C17.5563 10.2604 17.1561 10.1754 16.8102 9.97583C16.4657 9.77571 16.1935 9.47168 16.0324 9.10731L15.5744 8.08497C15.4393 7.78064 15.2187 7.52207 14.9395 7.3406C14.6604 7.15913 14.3345 7.06257 14.0015 7.06262C13.6686 7.06257 13.3427 7.15913 13.0635 7.3406C12.7844 7.52207 12.5638 7.78064 12.4287 8.08497L11.9741 9.10731C11.8131 9.47168 11.5408 9.77571 11.1964 9.97583C10.8504 10.1754 10.4502 10.2604 10.053 10.2187L8.93735 10.1003C8.60627 10.0653 8.27215 10.127 7.97548 10.2781C7.67882 10.4292 7.43236 10.6631 7.26599 10.9515C7.09941 11.2397 7.02004 11.5701 7.03753 11.9025C7.05502 12.2349 7.16861 12.5551 7.36451 12.8242L8.02303 13.729C8.25787 14.052 8.38433 14.4411 8.38426 14.8404C8.38433 15.2397 8.25787 15.6288 8.02303 15.9518L7.36451 16.8566C7.16861 17.1257 7.05502 17.4459 7.03753 17.7783C7.02004 18.1107 7.09941 18.4411 7.26599 18.7293C7.43252 19.0175 7.67901 19.2513 7.97563 19.4024C8.27225 19.5534 8.6063 19.6153 8.93735 19.5805L10.0496 19.4621C10.4468 19.4204 10.847 19.5054 11.1929 19.705C11.5386 19.9045 11.8122 20.2086 11.9741 20.5735Z" stroke="#344054" stroke-width="1.5" stroke-linecap="round" stroke-linejoin="round"/>
<path d="M14.0002 17.1737C15.2888 17.1737 16.3335 16.1291 16.3335 14.8404C16.3335 13.5517 15.2888 12.5071 14.0002 12.5071C12.7115 12.5071 11.6668 13.5517 11.6668 14.8404C11.6668 16.1291 12.7115 17.1737 14.0002 17.1737Z" stroke="#344054" stroke-width="1.5" stroke-linecap="round" stroke-linejoin="round"/>
</svg>
