<svg width="28" height="29" viewBox="0 0 28 29" fill="none" xmlns="http://www.w3.org/2000/svg">
<path d="M0.388889 6.84106C0.388889 3.74213 2.90107 1.22995 6 1.22995H22C25.0989 1.22995 27.6111 3.74213 27.6111 6.84106V22.8411C27.6111 25.94 25.0989 28.4522 22 28.4522H6C2.90107 28.4522 0.388889 25.94 0.388889 22.8411V6.84106Z" fill="white"/>
<path d="M0.388889 6.84106C0.388889 3.74213 2.90107 1.22995 6 1.22995H22C25.0989 1.22995 27.6111 3.74213 27.6111 6.84106V22.8411C27.6111 25.94 25.0989 28.4522 22 28.4522H6C2.90107 28.4522 0.388889 25.94 0.388889 22.8411V6.84106Z" stroke="#EAECF0" stroke-width="0.777778"/>
<path d="M21.1641 17.866C20.6693 19.0361 19.8954 20.0672 18.91 20.8692C17.9246 21.6711 16.7578 22.2195 15.5115 22.4663C14.2653 22.7132 12.9775 22.651 11.7609 22.2851C10.5442 21.9193 9.43568 21.261 8.53221 20.3678C7.62874 19.4746 6.95783 18.3737 6.57813 17.1612C6.19844 15.9488 6.12152 14.6619 6.3541 13.4129C6.58669 12.1639 7.12169 10.9909 7.91234 9.99642C8.70299 9.00196 9.72521 8.21631 10.8896 7.70818M21.1865 11.864C21.4978 12.6157 21.6888 13.4104 21.7536 14.2188C21.7697 14.4186 21.7777 14.5184 21.738 14.6084C21.7049 14.6835 21.6392 14.7546 21.567 14.7937C21.4805 14.8404 21.3724 14.8404 21.1563 14.8404H14.623C14.4052 14.8404 14.2963 14.8404 14.2131 14.798C14.1399 14.7607 14.0804 14.7012 14.0431 14.6281C14.0007 14.5449 14.0007 14.436 14.0007 14.2182V7.68484C14.0007 7.46873 14.0007 7.36067 14.0475 7.27416C14.0865 7.20191 14.1576 7.13627 14.2328 7.10314C14.3227 7.06348 14.4226 7.07148 14.6223 7.0875C15.4308 7.15232 16.2255 7.34331 16.9772 7.65467C17.9208 8.04554 18.7782 8.61845 19.5005 9.34068C20.2227 10.0629 20.7956 10.9203 21.1865 11.864Z" stroke="#344054" stroke-width="1.5" stroke-linecap="round" stroke-linejoin="round"/>
</svg>
