<svg width="28" height="29" viewBox="0 0 28 29" fill="none" xmlns="http://www.w3.org/2000/svg">
<path d="M0.388889 6.68213C0.388889 3.5832 2.90107 1.07102 6 1.07102H22C25.0989 1.07102 27.6111 3.5832 27.6111 6.68213V22.6821C27.6111 25.7811 25.0989 28.2932 22 28.2932H6C2.90107 28.2932 0.388889 25.7811 0.388889 22.6821V6.68213Z" fill="white"/>
<path d="M0.388889 6.68213C0.388889 3.5832 2.90107 1.07102 6 1.07102H22C25.0989 1.07102 27.6111 3.5832 27.6111 6.68213V22.6821C27.6111 25.7811 25.0989 28.2932 22 28.2932H6C2.90107 28.2932 0.388889 25.7811 0.388889 22.6821V6.68213Z" stroke="#EAECF0" stroke-width="0.777778"/>
<path d="M11.9761 20.4146L12.4307 21.4369C12.5658 21.7412 12.7863 21.9998 13.0655 22.1813C13.3447 22.3627 13.6705 22.4593 14.0035 22.4592C14.3365 22.4593 14.6623 22.3627 14.9415 22.1813C15.2207 21.9998 15.4412 21.7412 15.5763 21.4369L16.0309 20.4146C16.1927 20.0518 16.4649 19.7494 16.8087 19.5504C17.1546 19.3508 17.5548 19.2658 17.952 19.3075L19.0642 19.4259C19.3953 19.4609 19.7294 19.3991 20.0261 19.2481C20.3228 19.097 20.5692 18.863 20.7356 18.5747C20.9022 18.2865 20.9815 17.9561 20.9641 17.6237C20.9466 17.2913 20.833 16.9711 20.6371 16.702L19.9786 15.7971C19.7441 15.4726 19.6188 15.0819 19.6208 14.6815C19.6207 14.2821 19.7472 13.8931 19.982 13.5701L20.6405 12.6653C20.8364 12.3962 20.95 12.076 20.9675 11.7435C20.985 11.4111 20.9056 11.0808 20.7391 10.7926C20.5727 10.5042 20.3262 10.2703 20.0296 10.1192C19.7329 9.9681 19.3988 9.90632 19.0677 9.94134L17.9555 10.0597C17.5583 10.1014 17.1581 10.0164 16.8121 9.8169C16.4677 9.61677 16.1954 9.31274 16.0344 8.94838L15.5763 7.92603C15.4412 7.62171 15.2207 7.36313 14.9415 7.18166C14.6623 7.0002 14.3365 6.90363 14.0035 6.90369C13.6705 6.90363 13.3447 7.0002 13.0655 7.18166C12.7863 7.36313 12.5658 7.62171 12.4307 7.92603L11.9761 8.94838C11.815 9.31274 11.5428 9.61677 11.1983 9.8169C10.8524 10.0164 10.4522 10.1014 10.055 10.0597L8.9393 9.94134C8.60823 9.90632 8.2741 9.9681 7.97744 10.1192C7.68077 10.2703 7.43431 10.5042 7.26794 10.7926C7.10136 11.0808 7.022 11.4111 7.03948 11.7435C7.05697 12.076 7.17056 12.3962 7.36646 12.6653L8.02498 13.5701C8.25982 13.8931 8.38629 14.2821 8.38622 14.6815C8.38629 15.0808 8.25982 15.4699 8.02498 15.7928L7.36646 16.6976C7.17056 16.9668 7.05697 17.287 7.03948 17.6194C7.022 17.9518 7.10136 18.2822 7.26794 18.5704C7.43448 18.8586 7.68097 19.0924 7.97759 19.2434C8.27421 19.3945 8.60825 19.4564 8.9393 19.4216L10.0515 19.3032C10.4487 19.2615 10.8489 19.3465 11.1949 19.546C11.5406 19.7456 11.8141 20.0497 11.9761 20.4146Z" stroke="#344054" stroke-width="1.5" stroke-linecap="round" stroke-linejoin="round"/>
<path d="M14.0021 17.0148C15.2908 17.0148 16.3354 15.9701 16.3354 14.6815C16.3354 13.3928 15.2908 12.3481 14.0021 12.3481C12.7134 12.3481 11.6688 13.3928 11.6688 14.6815C11.6688 15.9701 12.7134 17.0148 14.0021 17.0148Z" stroke="#344054" stroke-width="1.5" stroke-linecap="round" stroke-linejoin="round"/>
</svg>
