<svg width="28" height="29" viewBox="0 0 28 29" fill="none" xmlns="http://www.w3.org/2000/svg">
<path d="M0.388889 6.84106C0.388889 3.74213 2.90107 1.22995 6 1.22995H22C25.0989 1.22995 27.6111 3.74213 27.6111 6.84106V22.8411C27.6111 25.94 25.0989 28.4522 22 28.4522H6C2.90107 28.4522 0.388889 25.94 0.388889 22.8411V6.84106Z" fill="white"/>
<path d="M0.388889 6.84106C0.388889 3.74213 2.90107 1.22995 6 1.22995H22C25.0989 1.22995 27.6111 3.74213 27.6111 6.84106V22.8411C27.6111 25.94 25.0989 28.4522 22 28.4522H6C2.90107 28.4522 0.388889 25.94 0.388889 22.8411V6.84106Z" stroke="#EAECF0" stroke-width="0.777778"/>
<path d="M10.8889 19.2996H17.1111M13.236 8.22713L7.96086 12.33C7.60824 12.6043 7.43193 12.7414 7.30491 12.9131C7.1924 13.0653 7.10858 13.2366 7.05758 13.4188C7 13.6245 7 13.8479 7 14.2946V19.9218C7 20.793 7 21.2286 7.16955 21.5613C7.31868 21.854 7.55665 22.092 7.84935 22.2411C8.1821 22.4107 8.6177 22.4107 9.48889 22.4107H18.5111C19.3823 22.4107 19.8179 22.4107 20.1507 22.2411C20.4433 22.092 20.6813 21.854 20.8305 21.5613C21 21.2286 21 20.793 21 19.9218V14.2946C21 13.8479 21 13.6245 20.9424 13.4188C20.8914 13.2366 20.8076 13.0653 20.6951 12.9131C20.5681 12.7414 20.3918 12.6043 20.0391 12.33L14.764 8.22713C14.4908 8.0146 14.3541 7.90833 14.2033 7.86749C14.0702 7.83144 13.9298 7.83144 13.7967 7.86749C13.6459 7.90833 13.5092 8.0146 13.236 8.22713Z" stroke="#344054" stroke-width="1.5" stroke-linecap="round" stroke-linejoin="round"/>
</svg>
