<svg width="28" height="29" viewBox="0 0 28 29" fill="none" xmlns="http://www.w3.org/2000/svg">
<path d="M0.388889 6.68213C0.388889 3.5832 2.90107 1.07102 6 1.07102H22C25.0989 1.07102 27.6111 3.5832 27.6111 6.68213V22.6821C27.6111 25.7811 25.0989 28.2932 22 28.2932H6C2.90107 28.2932 0.388889 25.7811 0.388889 22.6821V6.68213Z" fill="white"/>
<path d="M0.388889 6.68213C0.388889 3.5832 2.90107 1.07102 6 1.07102H22C25.0989 1.07102 27.6111 3.5832 27.6111 6.68213V22.6821C27.6111 25.7811 25.0989 28.2932 22 28.2932H6C2.90107 28.2932 0.388889 25.7811 0.388889 22.6821V6.68213Z" stroke="#EAECF0" stroke-width="0.777778"/>
<path d="M10.8908 19.1406H17.1131M13.2379 8.06819L7.96281 12.1711C7.61019 12.4453 7.43388 12.5825 7.30686 12.7542C7.19435 12.9063 7.11053 13.0777 7.05953 13.2599C7.00195 13.4656 7.00195 13.689 7.00195 14.1357V19.7628C7.00195 20.634 7.00195 21.0696 7.1715 21.4024C7.32063 21.6951 7.5586 21.9331 7.8513 22.0822C8.18405 22.2517 8.61965 22.2517 9.49084 22.2517H18.5131C19.3843 22.2517 19.8199 22.2517 20.1526 22.0822C20.4453 21.9331 20.6833 21.6951 20.8324 21.4024C21.002 21.0696 21.002 20.634 21.002 19.7628V14.1357C21.002 13.689 21.002 13.4656 20.9444 13.2599C20.8934 13.0777 20.8096 12.9063 20.697 12.7542C20.57 12.5825 20.3937 12.4453 20.0411 12.1711L14.766 8.06819C14.4927 7.85566 14.3561 7.7494 14.2052 7.70855C14.0721 7.67251 13.9318 7.67251 13.7987 7.70855C13.6478 7.7494 13.5112 7.85566 13.2379 8.06819Z" stroke="#344054" stroke-width="1.5" stroke-linecap="round" stroke-linejoin="round"/>
</svg>
