<svg width="16" height="16" viewBox="0 0 16 16" fill="none" xmlns="http://www.w3.org/2000/svg">
<g clip-path="url(#clip0_2673_96523)">
<path d="M5.84141 6.125C5.98835 5.70729 6.27838 5.35507 6.66013 5.13071C7.04188 4.90635 7.49072 4.82434 7.92714 4.8992C8.36357 4.97405 8.75942 5.20095 9.04458 5.53971C9.32974 5.87846 9.48582 6.3072 9.48516 6.75C9.48516 8 7.61016 8.625 7.61016 8.625M7.66016 11.125H7.66641M13.9102 8C13.9102 11.4518 11.1119 14.25 7.66016 14.25C4.20838 14.25 1.41016 11.4518 1.41016 8C1.41016 4.54822 4.20838 1.75 7.66016 1.75C11.1119 1.75 13.9102 4.54822 13.9102 8Z" stroke="#475467" stroke-width="0.9375" stroke-linecap="round" stroke-linejoin="round"/>
</g>
<defs>
<clipPath id="clip0_2673_96523">
<rect width="15" height="15" fill="white" transform="translate(0.160156 0.5)"/>
</clipPath>
</defs>
</svg>
