<svg width="17" height="17" viewBox="0 0 17 17" fill="none" xmlns="http://www.w3.org/2000/svg">
<path d="M7.85663 9.21267L14.9376 2.13165M7.94266 9.43391L9.71502 13.9914C9.87115 14.3929 9.94922 14.5936 10.0617 14.6522C10.1592 14.703 10.2754 14.7031 10.373 14.6524C10.4855 14.5939 10.5638 14.3933 10.7204 13.992L15.1648 2.60318C15.3062 2.24091 15.3769 2.05978 15.3382 1.94404C15.3047 1.84352 15.2258 1.76464 15.1253 1.73106C15.0095 1.69239 14.8284 1.76308 14.4661 1.90445L3.07731 6.34886C2.67601 6.50547 2.47535 6.58377 2.41688 6.69633C2.36618 6.79391 2.36625 6.91007 2.41706 7.00758C2.47567 7.12007 2.67641 7.19814 3.0779 7.35428L7.63538 9.12663C7.71688 9.15832 7.75763 9.17417 7.79194 9.19865C7.82236 9.22034 7.84895 9.24694 7.87065 9.27735C7.89512 9.31166 7.91097 9.35241 7.94266 9.43391Z" stroke="white" stroke-width="0.851852" stroke-linecap="round" stroke-linejoin="round"/>
</svg>
