<svg width="13" height="14" viewBox="0 0 13 14" fill="none" xmlns="http://www.w3.org/2000/svg">
<path d="M10.5365 6.2858C11.084 6.2858 11.5277 5.84202 11.5277 5.29459C11.5277 4.74716 11.0839 4.30339 10.5365 4.30339C9.989 4.30339 9.54515 4.7472 9.54515 5.29468V6.2858H10.5365ZM7.76082 6.2858C8.3083 6.2858 8.75211 5.84198 8.75211 5.29451V2.51906C8.75211 1.97159 8.3083 1.52777 7.76082 1.52777C7.21335 1.52777 6.76953 1.97159 6.76953 2.51906V5.29451C6.76953 5.84198 7.21335 6.2858 7.76082 6.2858Z" fill="#2EB67D"/>
<path d="M2.20957 7.07907C1.66214 7.07907 1.21837 7.52285 1.21837 8.07028C1.21837 8.6177 1.66219 9.06148 2.20961 9.06148C2.75709 9.06148 3.20095 8.61767 3.20095 8.07019V7.07907H2.20957ZM4.98527 7.07907C4.4378 7.07907 3.99398 7.52289 3.99398 8.07036V10.8458C3.99398 11.3933 4.4378 11.8371 4.98527 11.8371C5.53275 11.8371 5.97656 11.3933 5.97656 10.8458V8.07036C5.97656 7.52289 5.53275 7.07907 4.98527 7.07907Z" fill="#E01E5A"/>
<path d="M6.77322 10.846C6.77322 11.3934 7.217 11.8372 7.76443 11.8372C8.31186 11.8372 8.75563 11.3934 8.75563 10.8459C8.75563 10.2985 8.31182 9.85459 7.76434 9.85459L6.77322 9.85459L6.77322 10.846ZM6.77322 8.07027C6.77322 8.61775 7.21704 9.06156 7.76451 9.06156L10.54 9.06156C11.0874 9.06156 11.5312 8.61775 11.5312 8.07027C11.5312 7.5228 11.0874 7.07898 10.54 7.07898L7.76451 7.07898C7.21704 7.07898 6.77322 7.5228 6.77322 8.07027Z" fill="#ECB22E"/>
<path d="M5.97678 2.51896C5.97678 1.97153 5.533 1.52775 4.98557 1.52775C4.43814 1.52775 3.99437 1.97157 3.99437 2.519C3.99437 3.06648 4.43818 3.51034 4.98566 3.51034L5.97678 3.51034L5.97678 2.51896ZM5.97678 5.29466C5.97678 4.74718 5.53296 4.30337 4.98549 4.30337L2.21004 4.30337C1.66257 4.30337 1.21875 4.74718 1.21875 5.29466C1.21875 5.84213 1.66257 6.28595 2.21004 6.28595L4.98549 6.28595C5.53296 6.28595 5.97678 5.84213 5.97678 5.29466Z" fill="#36C5F0"/>
</svg>
