<svg width="13" height="13" viewBox="0 0 13 13" fill="none" xmlns="http://www.w3.org/2000/svg">
<path d="M10.5365 5.9631C11.084 5.9631 11.5277 5.51933 11.5277 4.9719C11.5277 4.42447 11.0839 3.98069 10.5365 3.98069C9.989 3.98069 9.54515 4.42451 9.54515 4.97198V5.9631H10.5365ZM7.76082 5.9631C8.3083 5.9631 8.75211 5.51929 8.75211 4.97181V2.19637C8.75211 1.64889 8.3083 1.20508 7.76082 1.20508C7.21335 1.20508 6.76953 1.64889 6.76953 2.19637V4.97181C6.76953 5.51929 7.21335 5.9631 7.76082 5.9631Z" fill="#2EB67D"/>
<path d="M2.20957 6.75638C1.66214 6.75638 1.21837 7.20016 1.21837 7.74758C1.21837 8.29501 1.66219 8.73879 2.20961 8.73879C2.75709 8.73879 3.20095 8.29497 3.20095 7.7475V6.75638H2.20957ZM4.98527 6.75638C4.4378 6.75638 3.99398 7.20019 3.99398 7.74767V10.5231C3.99398 11.0706 4.4378 11.5144 4.98527 11.5144C5.53275 11.5144 5.97656 11.0706 5.97656 10.5231V7.74767C5.97656 7.20019 5.53275 6.75638 4.98527 6.75638Z" fill="#E01E5A"/>
<path d="M6.77322 10.5232C6.77322 11.0706 7.217 11.5144 7.76443 11.5144C8.31186 11.5144 8.75563 11.0706 8.75563 10.5232C8.75563 9.9757 8.31182 9.53184 7.76434 9.53184L6.77322 9.53184L6.77322 10.5232ZM6.77322 7.74752C6.77322 8.29499 7.21704 8.73881 7.76451 8.73881L10.54 8.73881C11.0874 8.73881 11.5312 8.29499 11.5312 7.74752C11.5312 7.20004 11.0874 6.75623 10.54 6.75623L7.76451 6.75623C7.21704 6.75623 6.77322 7.20004 6.77322 7.74752Z" fill="#ECB22E"/>
<path d="M5.97678 2.19614C5.97678 1.64872 5.533 1.20494 4.98557 1.20494C4.43814 1.20494 3.99437 1.64876 3.99437 2.19619C3.99437 2.74366 4.43818 3.18752 4.98566 3.18752L5.97678 3.18752L5.97678 2.19614ZM5.97678 4.97184C5.97678 4.42437 5.53296 3.98055 4.98549 3.98055L2.21004 3.98055C1.66257 3.98055 1.21875 4.42437 1.21875 4.97184C1.21875 5.51932 1.66257 5.96313 2.21004 5.96313L4.98549 5.96313C5.53296 5.96313 5.97678 5.51932 5.97678 4.97184Z" fill="#36C5F0"/>
</svg>
