<svg width="13" height="14" viewBox="0 0 13 14" fill="none" xmlns="http://www.w3.org/2000/svg">
<path d="M10.5365 6.6456C11.084 6.6456 11.5277 6.20182 11.5277 5.65439C11.5277 5.10697 11.0839 4.66319 10.5365 4.66319C9.989 4.66319 9.54515 5.107 9.54515 5.65448V6.6456H10.5365ZM7.76082 6.6456C8.3083 6.6456 8.75211 6.20178 8.75211 5.65431V2.87886C8.75211 2.33139 8.3083 1.88757 7.76082 1.88757C7.21335 1.88757 6.76953 2.33139 6.76953 2.87886V5.65431C6.76953 6.20178 7.21335 6.6456 7.76082 6.6456Z" fill="#2EB67D"/>
<path d="M2.20957 7.43881C1.66214 7.43881 1.21837 7.88259 1.21837 8.43002C1.21837 8.97745 1.66219 9.42122 2.20961 9.42122C2.75709 9.42122 3.20095 8.97741 3.20095 8.42993V7.43881H2.20957ZM4.98527 7.43881C4.4378 7.43881 3.99398 7.88263 3.99398 8.4301V11.2055C3.99398 11.753 4.4378 12.1968 4.98527 12.1968C5.53275 12.1968 5.97656 11.753 5.97656 11.2055V8.4301C5.97656 7.88263 5.53275 7.43881 4.98527 7.43881Z" fill="#E01E5A"/>
<path d="M6.77322 11.2057C6.77322 11.7532 7.217 12.1969 7.76443 12.1969C8.31186 12.1969 8.75563 11.7531 8.75563 11.2057C8.75563 10.6582 8.31182 10.2144 7.76434 10.2144L6.77322 10.2144L6.77322 11.2057ZM6.77322 8.43004C6.77322 8.97752 7.21704 9.42133 7.76451 9.42133L10.54 9.42133C11.0874 9.42133 11.5312 8.97752 11.5312 8.43004C11.5312 7.88257 11.0874 7.43875 10.54 7.43875L7.76451 7.43875C7.21704 7.43875 6.77322 7.88257 6.77322 8.43004Z" fill="#ECB22E"/>
<path d="M5.97678 2.87873C5.97678 2.3313 5.533 1.88753 4.98557 1.88753C4.43814 1.88753 3.99437 2.33135 3.99437 2.87877C3.99437 3.42625 4.43818 3.87011 4.98566 3.87011L5.97678 3.87011L5.97678 2.87873ZM5.97678 5.65443C5.97678 5.10696 5.53296 4.66314 4.98549 4.66314L2.21004 4.66314C1.66257 4.66314 1.21875 5.10696 1.21875 5.65443C1.21875 6.20191 1.66257 6.64572 2.21004 6.64572L4.98549 6.64572C5.53296 6.64572 5.97678 6.20191 5.97678 5.65443Z" fill="#36C5F0"/>
</svg>
