<svg width="14" height="14" viewBox="0 0 14 14" fill="none" xmlns="http://www.w3.org/2000/svg">
<path d="M5.20787 7.173C5.20787 7.54229 5.49142 7.84556 5.83718 7.84556C6.189 7.84556 6.46704 7.54229 6.46648 7.173C6.47253 6.80317 6.189 6.49992 5.83718 6.49992C5.48536 6.49992 5.20787 6.8037 5.20787 7.173Z" fill="#5865F2"/>
<path d="M7.53348 7.173C7.53348 7.54229 7.81704 7.84556 8.16281 7.84556C8.5146 7.84556 8.79211 7.54229 8.79211 7.173C8.79816 6.80317 8.5146 6.49992 8.16281 6.49992C7.81099 6.49992 7.53348 6.8037 7.53348 7.173Z" fill="#5865F2"/>
<path fill-rule="evenodd" clip-rule="evenodd" d="M7 13.125C10.3827 13.125 13.125 10.3827 13.125 7C13.125 3.61726 10.3827 0.875 7 0.875C3.61726 0.875 0.875 3.61726 0.875 7C0.875 10.3827 3.61726 13.125 7 13.125ZM7.98552 4.375C8.49203 4.45742 8.97653 4.60218 9.42968 4.80136C10.2219 5.91295 10.6156 7.16666 10.4702 8.61267C9.86406 9.03851 9.27605 9.29685 8.69795 9.46591C8.5548 9.28153 8.42817 9.085 8.31861 8.87895C8.52728 8.80445 8.72769 8.71252 8.91709 8.60527C8.86753 8.57042 8.81852 8.53396 8.77064 8.49645C7.63259 9.00257 6.38115 9.00257 5.22935 8.49645C5.18199 8.53396 5.13299 8.57042 5.08289 8.60527C5.27174 8.71201 5.4716 8.80392 5.68027 8.87842C5.5707 9.085 5.44352 9.281 5.30092 9.46538C4.72337 9.29632 4.13591 9.03798 3.52973 8.61267C3.40585 7.36531 3.6536 6.09997 4.56756 4.80241C5.02068 4.60271 5.50573 4.45742 6.01282 4.375C6.07556 4.48066 6.14991 4.62278 6.2 4.73584C6.72855 4.65977 7.26206 4.65977 7.80052 4.73584C7.85062 4.62278 7.92329 4.48066 7.98552 4.375Z" fill="#5865F2"/>
<path fill-rule="evenodd" clip-rule="evenodd" d="M7.98552 4.375C8.49203 4.45742 8.97653 4.60218 9.42968 4.80136C10.2219 5.91295 10.6156 7.16666 10.4702 8.61267C9.86406 9.03851 9.27605 9.29685 8.69795 9.46591C8.5548 9.28153 8.42817 9.085 8.31861 8.87895C8.52728 8.80445 8.72769 8.71252 8.91709 8.60527C8.86753 8.57042 8.81852 8.53396 8.77064 8.49645C7.63259 9.00257 6.38115 9.00257 5.22935 8.49645C5.18199 8.53396 5.13299 8.57042 5.08289 8.60527C5.27174 8.71201 5.4716 8.80392 5.68027 8.87842C5.5707 9.085 5.44352 9.281 5.30092 9.46538C4.72337 9.29632 4.13591 9.03798 3.52973 8.61267C3.40585 7.36531 3.6536 6.09997 4.56756 4.80241C5.02068 4.60271 5.50573 4.45742 6.01282 4.375C6.07556 4.48066 6.14991 4.62278 6.2 4.73584C6.72855 4.65977 7.26206 4.65977 7.80052 4.73584C7.85062 4.62278 7.92329 4.48066 7.98552 4.375ZM5.83718 7.84556C5.49142 7.84556 5.20787 7.54229 5.20787 7.173C5.20787 6.8037 5.48536 6.49992 5.83718 6.49992C6.189 6.49992 6.47253 6.80317 6.46648 7.173C6.46704 7.54229 6.189 7.84556 5.83718 7.84556ZM8.16281 7.84556C7.81704 7.84556 7.53348 7.54229 7.53348 7.173C7.53348 6.8037 7.81099 6.49992 8.16281 6.49992C8.5146 6.49992 8.79816 6.80317 8.79211 7.173C8.79211 7.54229 8.5146 7.84556 8.16281 7.84556Z" fill="white"/>
</svg>
