<svg width="10" height="10" viewBox="0 0 10 10" fill="none" xmlns="http://www.w3.org/2000/svg">
<path d="M7.91328 4.70125C8.32555 4.70125 8.65975 4.36704 8.65975 3.95478C8.65975 3.54252 8.32551 3.20832 7.91325 3.20832C7.50096 3.20832 7.16669 3.54255 7.16669 3.95485V4.70125H7.91328ZM5.82294 4.70125C6.23524 4.70125 6.56947 4.36702 6.56947 3.95472V1.86457C6.56947 1.45227 6.23524 1.11804 5.82294 1.11804C5.41065 1.11804 5.07642 1.45227 5.07642 1.86457V3.95472C5.07642 4.36702 5.41065 4.70125 5.82294 4.70125Z" fill="#2EB67D"/>
<path d="M1.64238 5.29863C1.23012 5.29863 0.895915 5.63283 0.895915 6.04509C0.895915 6.45735 1.23015 6.79156 1.64241 6.79156C2.05471 6.79156 2.38897 6.45733 2.38897 6.04503V5.29863H1.64238ZM3.73272 5.29863C3.32042 5.29863 2.98619 5.63286 2.98619 6.04516V8.13531C2.98619 8.5476 3.32042 8.88184 3.73272 8.88184C4.14502 8.88184 4.47925 8.5476 4.47925 8.13531V6.04516C4.47925 5.63286 4.14502 5.29863 3.73272 5.29863Z" fill="#E01E5A"/>
<path d="M5.07646 8.13545C5.07646 8.54771 5.41067 8.88192 5.82293 8.88192C6.23519 8.88192 6.56939 8.54768 6.56939 8.13542C6.56939 7.72313 6.23516 7.38886 5.82286 7.38886L5.07646 7.38886L5.07646 8.13545ZM5.07646 6.04511C5.07646 6.45741 5.41069 6.79164 5.82299 6.79164L7.91314 6.79164C8.32544 6.79164 8.65967 6.45741 8.65967 6.04511C8.65967 5.63282 8.32544 5.29858 7.91314 5.29858L5.82299 5.29858C5.41069 5.29858 5.07646 5.63282 5.07646 6.04511Z" fill="#ECB22E"/>
<path d="M4.47896 1.86443C4.47896 1.45216 4.14475 1.11796 3.73249 1.11796C3.32023 1.11796 2.98603 1.4522 2.98603 1.86446C2.98603 2.27675 3.32026 2.61102 3.73256 2.61102L4.47896 2.61102L4.47896 1.86443ZM4.47896 3.95477C4.47896 3.54247 4.14473 3.20824 3.73243 3.20824L1.64228 3.20824C1.22998 3.20824 0.895752 3.54247 0.895752 3.95477C0.895752 4.36706 1.22998 4.70129 1.64228 4.70129L3.73243 4.70129C4.14473 4.70129 4.47896 4.36706 4.47896 3.95477Z" fill="#36C5F0"/>
</svg>
