<svg width="13" height="14" viewBox="0 0 13 14" fill="none" xmlns="http://www.w3.org/2000/svg">
<path d="M10.5365 6.60336C11.084 6.60336 11.5277 6.15959 11.5277 5.61216C11.5277 5.06473 11.0839 4.62095 10.5365 4.62095C9.989 4.62095 9.54515 5.06477 9.54515 5.61224V6.60336H10.5365ZM7.76082 6.60336C8.3083 6.60336 8.75211 6.15955 8.75211 5.61207V2.83663C8.75211 2.28915 8.3083 1.84534 7.76082 1.84534C7.21335 1.84534 6.76953 2.28915 6.76953 2.83663V5.61207C6.76953 6.15955 7.21335 6.60336 7.76082 6.60336Z" fill="#2EB67D"/>
<path d="M2.20957 7.39664C1.66214 7.39664 1.21837 7.84041 1.21837 8.38784C1.21837 8.93527 1.66219 9.37905 2.20961 9.37905C2.75709 9.37905 3.20095 8.93523 3.20095 8.38776V7.39664H2.20957ZM4.98527 7.39664C4.4378 7.39664 3.99398 7.84045 3.99398 8.38793V11.1634C3.99398 11.7108 4.4378 12.1547 4.98527 12.1547C5.53275 12.1547 5.97656 11.7108 5.97656 11.1634V8.38793C5.97656 7.84045 5.53275 7.39664 4.98527 7.39664Z" fill="#E01E5A"/>
<path d="M6.77322 11.1635C6.77322 11.7109 7.217 12.1547 7.76443 12.1547C8.31186 12.1547 8.75563 11.7109 8.75563 11.1634C8.75563 10.616 8.31182 10.1721 7.76434 10.1721L6.77322 10.1721L6.77322 11.1635ZM6.77322 8.38778C6.77322 8.93525 7.21704 9.37907 7.76451 9.37907L10.54 9.37907C11.0874 9.37907 11.5312 8.93525 11.5312 8.38778C11.5312 7.8403 11.0874 7.39648 10.54 7.39648L7.76451 7.39648C7.21704 7.39648 6.77322 7.8403 6.77322 8.38778Z" fill="#ECB22E"/>
<path d="M5.97678 2.8364C5.97678 2.28897 5.533 1.8452 4.98557 1.8452C4.43814 1.8452 3.99437 2.28902 3.99437 2.83645C3.99437 3.38392 4.43818 3.82778 4.98566 3.82778L5.97678 3.82778L5.97678 2.8364ZM5.97678 5.6121C5.97678 5.06463 5.53296 4.62081 4.98549 4.62081L2.21004 4.62081C1.66257 4.62081 1.21875 5.06463 1.21875 5.6121C1.21875 6.15958 1.66257 6.60339 2.21004 6.60339L4.98549 6.60339C5.53296 6.60339 5.97678 6.15958 5.97678 5.6121Z" fill="#36C5F0"/>
</svg>
