<svg width="14" height="14" viewBox="0 0 14 14" fill="none" xmlns="http://www.w3.org/2000/svg">
<path fill-rule="evenodd" clip-rule="evenodd" d="M7 13.125C10.3827 13.125 13.125 10.3827 13.125 7C13.125 3.61726 10.3827 0.875 7 0.875C3.61726 0.875 0.875 3.61726 0.875 7C0.875 8.09851 1.16419 9.12948 1.67058 10.0209L0.875 13.125L4.07525 12.3829C4.94435 12.8561 5.94078 13.125 7 13.125ZM7 12.1827C9.86232 12.1827 12.1827 9.86232 12.1827 7C12.1827 4.13768 9.86232 1.81731 7 1.81731C4.13768 1.81731 1.81731 4.13768 1.81731 7C1.81731 8.10515 2.16322 9.12952 2.75268 9.97072L2.28846 11.7115L4.05997 11.2687C4.89535 11.8451 5.90825 12.1827 7 12.1827Z" fill="#BFC8D0"/>
<path d="M12.25 6.5625C12.25 9.462 9.8995 11.8125 7 11.8125C5.89407 11.8125 4.86801 11.4705 4.02179 10.8866L2.22727 11.3352L2.69752 9.5718C2.1004 8.71967 1.75 7.68201 1.75 6.5625C1.75 3.66301 4.10051 1.3125 7 1.3125C9.8995 1.3125 12.25 3.66301 12.25 6.5625Z" fill="url(#paint0_linear_5132_15086)"/>
<path fill-rule="evenodd" clip-rule="evenodd" d="M7 12.6875C10.3827 12.6875 13.125 9.94524 13.125 6.5625C13.125 3.17976 10.3827 0.4375 7 0.4375C3.61726 0.4375 0.875 3.17976 0.875 6.5625C0.875 7.66101 1.16419 8.69198 1.67058 9.58342L0.875 12.6875L4.07525 11.9454C4.94435 12.4186 5.94078 12.6875 7 12.6875ZM7 11.7452C9.86232 11.7452 12.1827 9.42482 12.1827 6.5625C12.1827 3.70018 9.86232 1.37981 7 1.37981C4.13768 1.37981 1.81731 3.70018 1.81731 6.5625C1.81731 7.66765 2.16322 8.69202 2.75268 9.53322L2.28846 11.274L4.05997 10.8312C4.89535 11.4076 5.90825 11.7452 7 11.7452Z" fill="white"/>
<path d="M5.47071 3.71873C5.32508 3.42623 5.10168 3.45212 4.876 3.45212C4.47266 3.45212 3.84375 3.93525 3.84375 4.83439C3.84375 5.57128 4.16846 6.37792 5.26264 7.58458C6.3186 8.7491 7.70606 9.35151 8.85792 9.331C10.0098 9.3105 10.2468 8.31929 10.2468 7.98455C10.2468 7.83618 10.1547 7.76215 10.0913 7.74204C9.69874 7.55366 8.97479 7.20266 8.81006 7.13671C8.64534 7.07076 8.55933 7.15996 8.50587 7.20848C8.35649 7.35084 8.06038 7.77037 7.95899 7.86473C7.8576 7.9591 7.70645 7.91134 7.64355 7.87567C7.41208 7.78278 6.78448 7.50362 6.28422 7.01868C5.66553 6.41893 5.62922 6.21259 5.51266 6.02892C5.41941 5.88198 5.48784 5.79182 5.52198 5.75242C5.65528 5.59861 5.83934 5.36115 5.92189 5.24315C6.00443 5.12514 5.9389 4.94598 5.89958 4.83439C5.73048 4.35447 5.58722 3.95273 5.47071 3.71873Z" fill="white"/>
<defs>
<linearGradient id="paint0_linear_5132_15086" x1="11.5938" y1="2.625" x2="1.75" y2="11.8125" gradientUnits="userSpaceOnUse">
<stop stop-color="#5BD066"/>
<stop offset="1" stop-color="#27B43E"/>
</linearGradient>
</defs>
</svg>
